<?xml version="1.0" encoding="utf-8"?>
<!-- Generator: Adobe Illustrator 21.0.0, SVG Export Plug-In . SVG Version: 6.00 Build 0)  -->
<svg version="1.1" id="Layer_1" xmlns="http://www.w3.org/2000/svg" xmlns:xlink="http://www.w3.org/1999/xlink" x="0px" y="0px"
	 viewBox="0 0 595.3 841.9" style="enable-background:new 0 0 595.3 841.9;" xml:space="preserve">
<style type="text/css">
	.st0{fill:#82B541;}
	.st1{fill:#FFFFFF;}
</style>
<path class="st0" d="M215.9,185.3c-0.9-0.5-3.6-0.2-6.7,0.8c-5.6,3.8-10.2,9.4-10.6,18.4c-0.1,0.2-0.6,0-0.7-0.1
	c-1.5-2.9-2.1-5.9-0.8-10.3c0.2-0.4-0.5-0.9-0.7-0.7c-0.3,0.3-1.4,1.5-2.2,2.8c-3.8,6.5-1.3,14.9,5.3,18.6
	c6.6,3.7,14.9,1.3,18.6-5.3C222.3,201.9,218.4,186.7,215.9,185.3z"/>
<g>
	<path class="st1" d="M239.5,189c-7.8,0-13.5,5.8-13.5,13.8c0,8.1,5.7,13.7,13.8,13.7c4.1,0,7.3-1.3,9.9-3.9
		c0.8-0.8,0.9-1.6,0.9-1.9c0-1.3-1-2.3-2.3-2.3c-0.7,0-1.2,0.3-1.9,0.9c-1.5,1.4-3.4,2.8-6.6,2.8c-4.4,0-8.1-3.3-8.3-7.6h17.7
		c1.9,0,2.9-0.9,2.9-2.7c0-0.5,0-0.9-0.1-1.7C251,193.1,246.4,189,239.5,189z M239.5,193.3c4.2,0,7,2.7,7.1,7.1h-15.1
		C231.9,196.3,235.3,193.3,239.5,193.3z"/>
	<path class="st1" d="M268.9,189c-3.6,0-7.1,2-8.4,4.9v-1.8c0-2.7-2.1-2.9-2.5-2.9c-1.2,0-2.6,0.8-2.6,2.9v21.2c0,2.8,2.2,3,2.7,3
		c0.4,0,2.7-0.1,2.7-3v-11.4c0-4.9,2.8-8.4,6.8-8.4c3.9,0,5.8,2.5,5.8,7.8v12c0,2.8,2.2,3,2.7,3c0.4,0,2.7-0.1,2.7-3v-13.7
		C278.7,194.5,276.1,189,268.9,189z"/>
	<path class="st1" d="M303.1,189.2c-1.2,0-2.1,0.7-2.7,2.2l-7.4,18.5l-7.3-18.5c-0.6-1.4-1.5-2.2-2.7-2.2c-1.5,0-2.7,1.2-2.7,2.6
		c0,0.4,0,0.8,0.3,1.5l8.5,20c1,2.4,2.7,2.9,3.9,2.9c1.2,0,2.9-0.5,3.9-2.9l8.5-20.1c0.3-0.7,0.3-1.2,0.3-1.5
		C305.7,190.3,304.6,189.2,303.1,189.2z"/>
	<path class="st1" d="M318.7,189c-3.4,0-6.7,1-9,2.7c-0.8,0.6-1.2,1.3-1.2,2.1c0,1.2,0.9,2.1,2.1,2.1c0.5,0,1.1-0.2,1.6-0.6
		c2-1.4,4-2,6-2c4,0,6.3,2,6.3,5.6v0.6c-8.9,0-18,1.1-18,8.9c0,5.6,4.8,8.1,9.5,8.1c3.8,0,6.8-1.5,8.7-4.3v1.4c0,2,1.4,2.7,2.5,2.7
		c0.2,0,2.4-0.1,2.4-2.7v-14.3C329.7,192.8,325.6,189,318.7,189z M323.4,203.5h1.1v1.2c0,4.5-2.9,7.5-7.4,7.5
		c-1.2,0-5.2-0.3-5.2-3.9C312,204,318.5,203.5,323.4,203.5z"/>
	<path class="st1" d="M343.7,194.1c2.4,0,2.5-1.8,2.5-2.2c0-1.1-0.7-2.3-2.5-2.3h-4.8v-4.9c0-2.2-1.4-3-2.6-3c-0.4,0-2.7,0.1-2.7,3
		V208c0,5.4,2.6,8.2,7.7,8.2c1.3,0,2.6-0.2,3.4-0.6c0.9-0.5,1.5-1.3,1.5-2.1c0-1.2-0.9-2.1-2.1-2.1c-0.2,0-0.6,0.1-1,0.2
		c-0.5,0.1-0.8,0.2-1.1,0.2c-2,0-3-1.3-3-4.2v-13.4H343.7z"/>
	<path class="st1" d="M361.5,189c-8.1,0-14.1,5.8-14.1,13.7c0,3.9,1.4,7.4,4,9.9c2.6,2.5,6.1,3.9,10,3.9c8,0,14.1-5.9,14.1-13.8
		C375.6,194.7,369.7,189,361.5,189z M361.5,212c-5.6,0-8.5-4.7-8.5-9.3c0-6.3,4.4-9.2,8.5-9.2s8.5,2.9,8.5,9.2
		C370,209.1,365.6,212,361.5,212z"/>
</g>
</svg>
