<?xml version="1.0" encoding="utf-8"?>
<!-- Generator: Adobe Illustrator 21.0.0, SVG Export Plug-In . SVG Version: 6.00 Build 0)  -->
<svg version="1.1" id="Layer_1" xmlns="http://www.w3.org/2000/svg" xmlns:xlink="http://www.w3.org/1999/xlink" x="0px" y="0px"
	 viewBox="0 0 156 59.7" style="enable-background:new 0 0 156 59.7;" xml:space="preserve">
<style type="text/css">
	.st0{fill:none;stroke:#000000;stroke-width:4;stroke-miterlimit:10;}
	.st1{fill:none;stroke:#000000;stroke-width:2;stroke-miterlimit:10;}
</style>
<path class="st0" d="M103.2,59.7h47.7l-33-33L99.2,58.7C100.6,58.7,101.8,59.1,103.2,59.7z"/>
<path class="st0" d="M97.4,58.9c0.1,0,0.2,0,0.3,0L53.3,14.4L3.9,59.7h91.6C96.1,59.3,96.7,59,97.4,58.9z"/>
<path class="st0" d="M98.9,58.7l14.7-25.1L84.5,4.2L64,24.7l34.1,34.1C98.4,58.7,98.7,58.7,98.9,58.7z"/>
<polyline class="st1" points="37.2,29.2 45.8,37.1 53.6,29.2 58.6,33.1 65.3,26.4 "/>
<polyline class="st1" points="73.6,12.5 81.6,17.8 86,12.5 91.7,17.8 95.2,12.5 "/>
<polyline class="st1" points="111.9,37.1 119.4,41.1 126.6,35.4 "/>
</svg>
