<svg xmlns="http://www.w3.org/2000/svg" xmlns:xlink="http://www.w3.org/1999/xlink" width="34" height="34" viewBox="0 0 34 34">
  <defs>
    <style>
      .cls-1 {
        fill: #fff;
        fill-rule: evenodd;
        filter: url(#filter);
      }
    </style>
    <filter id="filter" x="607" y="3559" width="34" height="34" filterUnits="userSpaceOnUse">
      <feOffset result="offset" dy="1" in="SourceAlpha"/>
      <feGaussianBlur result="blur" stdDeviation="1"/>
      <feFlood result="flood" flood-opacity="0.25"/>
      <feComposite result="composite" operator="in" in2="blur"/>
      <feBlend result="blend" in="SourceGraphic"/>
    </filter>
  </defs>
  <path id="twitter" class="cls-1" d="M623.234,3572.54c-6.227-4.21-6.639-3.4-6.639-3.39-0.489,1.1,1.406,2.48,1.406,2.48l-0.541.02s-0.8-.03-0.623.54a3.669,3.669,0,0,0,1.13,1.49,1.553,1.553,0,0,0,1.046.01s-0.616.33-1.006,0.57c-0.643.42-.181,0.78-0.111,0.85a3.029,3.029,0,0,0,2.152.84,3.319,3.319,0,0,0-.616,1.02,1.031,1.031,0,0,0,.441.76,2.048,2.048,0,0,0,.907.28c-3.369,3.58-7.429-.02-7.429-0.03,0.453,2.62,4.3,5.15,11.069,4.17,5.488-.88,7.243-6.9,7.243-6.9s2.268,0.13,2.524-1.22a5.636,5.636,0,0,1-1.733-.08s1.744-.76,1.826-1.67a3.838,3.838,0,0,1-2.582.58c-1.186-4.14-4.034-4.14-4.034-4.14s1.209-.69,1.174-1.1a1.508,1.508,0,0,0-1.181.26,0.435,0.435,0,0,0-.168-0.65,1.344,1.344,0,0,0-.674.7,0.663,0.663,0,0,0-.337-0.33C624.571,3568.13,623.228,3572.54,623.234,3572.54Zm0.3-13.54a15.375,15.375,0,1,1-15.35,15.38A15.367,15.367,0,0,1,623.537,3559Z" transform="translate(-607 -3559)"/>
</svg>
