<?xml version="1.0" encoding="utf-8"?>
<!-- Generator: Adobe Illustrator 21.0.0, SVG Export Plug-In . SVG Version: 6.00 Build 0)  -->
<svg version="1.1" id="Layer_1" xmlns="http://www.w3.org/2000/svg" xmlns:xlink="http://www.w3.org/1999/xlink" x="0px" y="0px"
	 viewBox="0 0 200 200" style="enable-background:new 0 0 200 200;" xml:space="preserve">
<style type="text/css">
	.st0{fill:#20A0DB;}
	.st1{fill:#B3B3B3;}
	.st2{fill:#C4C4C4;}
	.st3{fill:#AAABB0;}
	.st4{fill:#D1D2D4;}
	.st5{fill:#AAAAAB;}
	.st6{fill:#E8E8E8;}
	.st7{fill:#FFFFFF;}
	.st8{fill:#FFE687;}
	.st9{fill:#C9C9C9;}
	.st10{fill:#D0D2D3;}
	.st11{fill:#818385;}
	.st12{fill:#B8B9BA;}
	.st13{fill:#373737;}
	.st14{fill:#49B7EB;}
</style>
<g>
	<path class="st0" d="M100.2,1.5c-6.9,0-13.7,0.7-20.2,2.1c2.1,2.1,4.3,4.6,6.3,7.5c3.5-0.6,7.2-0.9,11.1-0.9
		c38.9,0,58.5,22.7,58.5,67.4v9.4l10.1-1.4l2-16.6l2,16.6l15.8,2.1L170,89.8l-2,16.6l-2-16.6l-10.1-1.4c0,13.5,0,31.4-0.1,49
		l5.4,5.4c2.9-1.1,6.4-0.5,8.6,1.7c1.6,1.6,2.4,3.7,2.3,5.8c13.6-15.7,21.7-36,21.7-58.1C193.9,42.1,152,1.5,100.2,1.5z M155.8,42.4
		c-1.6,0-2.9-1.3-2.9-2.9s1.3-2.9,2.9-2.9s2.9,1.3,2.9,2.9S157.5,42.4,155.8,42.4z M171.6,56.4l-1.4,11.1L169,56.4L158.4,55
		l10.6-1.4l1.3-11.1l1.4,11.1l10.5,1.4L171.6,56.4z M179.3,106.8c-1.6,0-2.9-1.3-2.9-2.9s1.3-2.9,2.9-2.9s2.9,1.3,2.9,2.9
		S180.9,106.8,179.3,106.8z M46.7,26.7c0.8-0.8,1.6-1.6,2.6-2.2l2.5-1.6c1-0.6,2.1-1.1,3.3-1.4c1.1-3.1,3.2-7.8,6.4-12
		c-8.4,3.7-16,8.5-22.9,14.3C41.2,24.4,44,25.3,46.7,26.7z M19.3,46.6C11.3,59.8,6.8,75.1,6.6,91.4l13-1.7l1.6-13.8l1.6,13.8l13,1.7
		l-13,1.8l-1.6,13.7l-1.6-13.7l-13-1.8l0,0.8c0,20.6,7.1,39.6,19,54.8c0.4-0.9,1-1.8,1.7-2.6c2.3-2.3,5.9-2.8,8.7-1.6l2.7-2.7
		c0-26.2,0-52.9,0-62.5c0-2.4,0.1-4.9,0.3-7.3l-0.8-0.5C31.9,65.6,22.9,57.1,19.3,46.6z M32.9,83.4c-1.6,0-2.9-1.3-2.9-2.9
		s1.3-2.9,2.9-2.9c1.6,0,2.9,1.3,2.9,2.9S34.5,83.4,32.9,83.4z M25.7,120.5l-1.4,11.1L23,120.5l-10.6-1.4l10.6-1.4l1.3-11.1
		l1.4,11.1l10.6,1.4L25.7,120.5z"/>
</g>
<g>
	<path class="st1" d="M83.8,181.5c-8-1.4-15.6-3.7-22.7-6.9c-0.4,0.7-0.8,1.4-1.4,2.1l-0.3,0.3c9,4.1,18.4,6.8,28.2,8.1
		c-0.8-0.6-1.6-1.2-2.3-1.9C84.7,182.6,84.2,182.1,83.8,181.5z M136.7,175.7c-0.4,0.2-0.9,0.4-1.4,0.6c-7.1,2.8-14.6,4.7-22.5,5.8
		c-1.1,1.3-2.4,2.4-3.8,3.4c9.4-0.8,18.6-3,27.4-6.4c0.9-0.4,1.8-0.7,2.7-1.1c-0.6-0.3-1.1-0.8-1.6-1.2
		C137.2,176.4,137,176.1,136.7,175.7L136.7,175.7z M97.4,10.2c-3.9,0-7.6,0.3-11.1,0.9c0.6,0.9,1.2,1.8,1.7,2.7
		c0.5,0.9,1,1.8,1.5,2.7c2.5-0.3,5.1-0.5,7.8-0.5c30.1,0,47.1,14.6,51.5,44.3l3,0.3l2.9,0.3l-2.6,2.2l-2.7,2.3
		c0.4,3.8,0.6,7.8,0.6,12.1c0,12.3,0,33.3-0.1,54.5c0.8,0.6,1.6,1.2,2.3,1.9l3.6,3.6c0-17.6,0.1-35.6,0.1-49V77.6
		C155.9,32.8,136.2,10.2,97.4,10.2L97.4,10.2z M40.8,70.1l-1.3,0.4l-0.4-0.3c-0.2,2.4-0.3,4.8-0.3,7.3c0,9.6,0,36.3,0,62.5l2.9-2.9
		l2.9-2.9c0-24.2,0-47.8,0-56.7c0-3.1,0.2-6.2,0.5-9.4c-1,0.6-2,1.1-3.1,1.6C41.7,69.8,41.3,70,40.8,70.1L40.8,70.1z"/>
</g>
<g>
	<path class="st2" d="M135.4,122.5c-0.5-0.3-0.9-0.6-1.4-0.9c-0.5,3.7-1.7,6.9-3.5,9.6c1.5-0.9,3.2-1.5,4.9-1.9
		c2.7-0.6,5.5-0.6,8.2-0.1C141.1,126.8,138.3,124.5,135.4,122.5L135.4,122.5z M135.4,172.5c-0.1-0.4-0.1-0.9-0.1-1.3s0-0.9,0.1-1.3
		c0.1-0.6,0.3-1.3,0.5-1.8l-8.9-8.9c-3.4-3.4-5.3-7.9-5.2-12.6c0-3,0.8-6,2.2-8.6c-2,1.4-4.2,2.6-6.5,3.5V154
		c3.1,1.2,5.3,4.2,5.3,7.7c0,3.5-2.2,6.5-5.3,7.7v0.3c0,3.2-0.8,6.3-2.3,9c-0.7,1.2-1.4,2.3-2.3,3.4c7.8-1,15.4-3,22.5-5.8l1.4-0.6
		c-0.6-0.8-1-1.8-1.3-2.7C135.4,172.8,135.4,172.6,135.4,172.5L135.4,172.5z M62,124.8c-0.9,0.7-1.8,1.5-2.7,2.3
		c-0.7,0.6-1.3,1.2-1.9,1.8c0.6,0,1.3,0,1.9,0.1c2.2,0.2,4.3,0.8,6.3,1.7C63.6,128.1,62.5,125.9,62,124.8z M79.6,169.7v-0.3
		c-3.1-1.2-5.3-4.2-5.3-7.7c0-2.2,0.9-4.3,2.5-5.9c0.8-0.8,1.8-1.4,2.9-1.9v-12.9c-2.5-1.1-4.7-2.3-6.6-3.6c1.6,2.7,2.4,5.8,2.4,9
		c0,4.7-1.8,9.3-5.2,12.6l-8.9,8.9c0.4,0.9,0.6,2,0.6,3c0,0.2,0,0.5,0,0.7c-0.1,1-0.4,2-0.8,2.9c7.1,3.2,14.8,5.5,22.7,6.9
		c-0.9-1.1-1.6-2.2-2.2-3.4C80.3,175.5,79.6,172.7,79.6,169.7z"/>
</g>
<g>
	<path class="st3" d="M131.4,117.1c-1.3-0.1-2.4,0.6-2.9,1.6c-0.2,0.3-0.3,0.7-0.3,1.1c-0.6,8.2-5.8,12.9-11.5,15.6
		c0.1,0.4,0.3,0.9,0.3,1.4c0.2,1.2,0.4,2.4,0.4,3.7v1c2.3-0.9,4.4-2.1,6.5-3.5c0.8-1.4,1.8-2.8,3-4c1-1.1,2.2-1.9,3.5-2.6
		c1.8-2.7,3-5.8,3.5-9.6c0.1-0.5,0.1-0.9,0.2-1.4C134.2,118.6,133.1,117.2,131.4,117.1z M67.2,122c-0.1-0.2-0.2-0.4-0.3-0.6
		c-0.8-1.1-2.1-1.6-3.4-1.2c-1.5,0.5-2.3,2.2-1.8,3.8c0,0.1,0.1,0.4,0.3,0.8c0.5,1.1,1.6,3.3,3.5,5.8c1.7,0.8,3.3,1.9,4.7,3.3
		c1.1,1.1,2.1,2.4,2.8,3.7c1.9,1.3,4.1,2.5,6.6,3.6v-0.7c0-0.8,0.1-1.6,0.2-2.4c0.1-1.1,0.3-2.1,0.6-3.1
		C70.3,130.1,67.4,122.5,67.2,122z"/>
</g>
<g>
	<path class="st4" d="M121.6,115.8c-1.1-0.4-2.2-0.7-3.4-1c-0.5-0.1-1-0.3-1.6-0.4c-8.3,4-18,5.5-27.8,3.6c-3-0.6-5.9-1.5-8.7-2.6
		c-1.2,0.4-2.3,0.7-3.4,1.2c-3.4,1.3-6.8,3-9.8,4.9c0.1,0.2,0.3,0.4,0.3,0.6c0.2,0.5,3.1,8.1,13.2,13c2.3-7.8,9.6-13.5,18.1-13.5
		c5.1,0,9.8,2,13.4,5.6c2.4,2.3,4,5.2,4.9,8.3c5.7-2.7,10.8-7.4,11.5-15.6c0-0.4,0.1-0.8,0.3-1.1l-0.5-0.3
		C126,117.4,123.8,116.6,121.6,115.8z M90.3,110.9c18.7,3.6,36.9-7.4,42.3-25l-0.2-0.1l-2.8-1.5c0.1,2.2-2.8,4.6-6.7,5.3
		c-3.2,0.6-6.1,0.1-7.5-1.3l-6.1,3.2l2.7-12.2l1.2-5.6l-4.7-4l-2.8-2.4H91.6l-0.5,0.4l-2.4,2.1l-4.7,4.2l1.3,5.9l2.6,12.3l-7.9-4.2
		c-1.3,1.6-4.4,2.3-7.8,1.6c-3-0.6-5.4-2.1-6.3-3.8l-1,0.5l-1.9,1C67,99.1,77.1,108.3,90.3,110.9L90.3,110.9z M116.6,92.5
		c-1.1,5.6-4.7,10.4-9.8,12.9c-2.4,1.2-5.1,1.9-7.9,1.9c-1.9,0.1-3.9-0.2-5.8-0.8h0c-2.3-0.7-4.4-1.7-6.3-3.1
		c-3.8-2.7-6.6-6.5-7.7-10.8L116.6,92.5L116.6,92.5z"/>
</g>
<g>
	<path class="st5" d="M100.2,97.7c-5.2-1-9.7,0.2-11.1,5.2c8.8,4.3,16,1.7,18.9,0.2C106.7,99.8,104.6,98.6,100.2,97.7z M70.7,83.2
		l-5,2.6c0.9,1.7,3.3,3.2,6.3,3.8c3.4,0.7,6.5,0,7.8-1.6l-3.2-1.7L70.7,83.2z M126.3,82.7l-6,3.2l-5,2.6c1.4,1.3,4.3,1.9,7.5,1.3
		c4-0.8,6.8-3.1,6.7-5.3L126.3,82.7z"/>
</g>
<g>
	<path class="st6" d="M59.3,96.9v30.1c0.9-0.8,1.8-1.5,2.7-2.3c-0.2-0.4-0.3-0.7-0.3-0.8c-0.5-1.5,0.3-3.2,1.8-3.8
		c1.3-0.4,2.6,0.1,3.4,1.2c3.1-1.9,6.4-3.6,9.8-4.9c1.1-0.4,2.3-0.8,3.4-1.2C71.2,111.6,63.9,105,59.3,96.9z M116.7,114.4
		c0.5,0.1,1,0.3,1.6,0.4c1.1,0.3,2.3,0.7,3.4,1c2.2,0.7,4.4,1.6,6.5,2.6l0.5,0.3c0.5-1.1,1.6-1.7,2.9-1.6c1.6,0.1,2.8,1.5,2.7,3.2
		c0,0.5-0.1,0.9-0.2,1.4c0.5,0.3,0.9,0.6,1.4,0.9V97.4C130.9,104.8,124.4,110.7,116.7,114.4L116.7,114.4z M129.5,48.3v0.8l2.1,4.1
		l2.8,5.6l1.1,0.1V48.3H129.5z M121,53.3l1.9-3.8l0.8-1.5v-5.5h-5.9v16.4l0.5,0L121,53.3z M106.1,60.1l5.5-0.6l0.3,0V48.3h-5.8V60.1
		z M98.3,61.5h0.4l-0.2-0.2L98.3,61.5z M94.4,60.6l3.8,0.4L98,60.9l2.2-0.2v-6.5h-5.9L94.4,60.6z M86.8,49.2
		c0.1,0.1-0.6,0.1-1.8,0.1c-0.7,0-1.5,0-2.4-0.1v10.1l2.8,0.3l3.1,0.3V48.6L88.2,49L86.8,49.2z M75.9,53.3l2.8,5.7l0.3,0V48.8
		c-1.6-0.2-3.3-0.6-5.1-1.1l-0.7-0.2l0.3,0.5L75.9,53.3z M65.1,54.1h-5.8v5.2l3.5-0.4L65.1,54.1z"/>
</g>
<g>
	<path class="st7" d="M149.4,65.4l-5.2,4.4l-4.7,4l1.2,5.6l2.7,12.2l-4.4-2.3c-1,2.8-2.2,5.5-3.7,8.1v25.2c3,2,5.7,4.2,8.2,6.7
		c2.3,0.5,4.4,1.4,6.3,2.7c0.1-21.2,0.1-42.1,0.1-54.5C150,73.2,149.8,69.2,149.4,65.4L149.4,65.4z M53.6,92.3L56.3,80l1.3-5.9
		l-4.7-4.2l-4.7-4.1c-0.9,0.8-1.9,1.6-3,2.3c-0.3,3.2-0.5,6.3-0.5,9.4c0,8.9,0,32.5,0,56.7l0.4-0.4c3.3-3.3,7.8-5,12.4-5
		c0.6-0.6,1.3-1.2,1.9-1.8V96.9c-1.1-1.9-2.1-4-2.9-6.1L53.6,92.3L53.6,92.3z M135.4,58.9l2.9,0.3l1.4,0.1l1.5,0.2l7.7,0.8
		C144.4,30.5,127.4,16,97.3,16c-2.7,0-5.3,0.2-7.8,0.5c1.9,3.6,3.3,7.5,4,11.5c0.2,1.4,0.4,2.8,0.4,4.3c0,2.4-0.2,4.9-0.9,7.3
		c-0.8,2.8-2.1,5.6-4,8.4l-0.5,0.7V60l5.8,0.6v-6.5h5.8v6.5l5.8-0.6V48.3h5.8v11.1l5.8-0.6V42.4h5.8v5.5l2.6-5.3l0,0l0.1,0.1
		l3.2,6.3v-0.8h5.9L135.4,58.9L135.4,58.9z M65.6,44.2l-0.4,0.3l-2.5,1.6c-0.4,0.3-0.9,0.5-1.3,0.7c-1.2,0.6-2.5,0.9-3.8,1.1
		c-0.8,3.3-2.3,8-4.8,12.2l2.1-0.2l1.2-0.1l0.2,0l3-0.3v-5.2h5.8l0.4-0.9l3.5-7.3c-0.9-0.4-1.8-0.8-2.8-1.3
		C66.1,44.5,65.8,44.3,65.6,44.2z M79,59l3.7,0.4V49.2c-1.1-0.1-2.3-0.2-3.7-0.4V59z M83.4,17.6c-0.5-0.9-1.1-1.7-1.6-2.5
		c-0.6-0.9-1.2-1.7-1.8-2.5c-2.1-2.7-4.1-4.7-5.2-5.9c-7,2-11.2,9.7-13.4,14.8c0.3,0.1,0.6,0.1,0.8,0.2c0.8,0.2,1.6,0.6,2.3,0.9
		c0.8-1.5,2-3.2,3.7-5.1c1.8-2,4.2-4.1,7.2-5.9l1.6,1.8l0.1,0c0,0-3.6,1.4-6.9,6.2c-0.9,1.4-1.9,3-2.7,5l0.1,0.1
		c0.6,0.6,1.2,1.3,1.7,2l12.5-5.4l1,1.6l-12.2,6.6c0.3,0.8,0.4,1.5,0.5,2.3c2.5,0.6,4.8,0.7,6.7,0.6c5.3-0.2,8.2-2.1,8.2-2.1
		l0.6,2.4c-2.6,1.2-5.2,1.9-7.5,2.3c-2.4,0.4-4.5,0.5-6.3,0.4l-0.2,0c-0.5,0-1.1,0-1.5-0.1c-0.1,0.5-0.2,1-0.3,1.6
		c-0.3,0.9-0.6,1.8-1.1,2.7c0.5,0.3,1.1,0.5,1.6,0.8c0.4,0.2,0.9,0.4,1.4,0.6c2.3,0.9,4.5,1.4,6.4,1.8c0.7,0.1,1.3,0.2,2,0.3
		c1.7,0.2,3.1,0.2,4.1,0.2c0.5-0.8,0.9-1.6,1.2-2.4c1.2-2.7,1.8-5.3,1.8-7.9c0-1.4-0.1-2.8-0.3-4.2C87.1,24.8,85.4,20.9,83.4,17.6z
		 M42.7,61.1l0.5-0.1l1.6-0.2c0.7-0.7,1.3-1.4,1.8-2.2c2.6-3.7,4.2-8.2,5-11.5c-0.3-0.1-0.5-0.2-0.8-0.3c-0.3,0.7-0.8,1.7-1.5,2.9
		c-1.1,1.8-2.7,3.9-4.9,6c-1,1-2.2,1.9-3.6,2.8c-0.3,0.2-0.6,0.4-0.9,0.6l-1.5-1.7c0,0,1.4-0.6,3.2-2.2c2-1.8,4.5-5,6.2-10.1
		c-0.7-0.6-1.3-1.2-1.9-2c-0.2-0.2-0.3-0.4-0.4-0.6l-13.5,5.9l-1-1.6l13-7.1c-0.2-0.5-0.3-1-0.4-1.5c-10.2-2.6-15.8,1.3-15.8,1.3
		l-0.6-2.4c6.5-3.1,12.7-3,16.1-2.7c0.1-0.9,0.2-1.8,0.5-2.6c-3.7-1.8-7.5-2.6-10.7-2.9c-3.4-0.3-6.3,0-7.9,0.2
		c-1.6,3.8-2,7.4-1.6,10.9c1.4,11.5,12.1,20.6,16.3,23.7c0.2,0.1,0.3,0.3,0.5,0.4c0.9-0.4,1.8-0.9,2.5-1.5c0.3-0.2,0.5-0.4,0.7-0.6
		l-0.5-0.5L42.7,61.1z M50.1,38.9c0.2,0.3,0.4,0.6,0.6,0.8c0.7,0.7,1.5,1.3,2.3,1.7c0.6,0.3,1.3,0.5,2,0.5c1.1,0.1,2.2,0,3.2-0.3
		c0.5-0.2,0.9-0.4,1.3-0.6l0.9-0.6l1.6-1c0.3-0.2,0.6-0.4,0.9-0.7c0.8-0.7,1.3-1.5,1.7-2.3c0.9-2,0.8-4.4-0.4-6.4
		c-0.4-0.6-0.8-1.1-1.3-1.5c-0.7-0.6-1.5-1.1-2.4-1.3l-0.2-0.1c-0.6-0.2-1.2-0.3-1.9-0.3c-0.4,0-0.7,0-1.1,0.1c-0.3,0-0.7,0.1-1,0.2
		c-0.5,0.2-1,0.4-1.5,0.7L54.6,28l-2.2,1.4c-0.2,0.1-0.5,0.3-0.7,0.5c-0.8,0.6-1.4,1.4-1.8,2.3c-0.7,1.4-0.9,2.9-0.5,4.5
		C49.5,37.5,49.7,38.2,50.1,38.9z"/>
</g>
<g>
	<path class="st8" d="M135.4,64.8l-3-0.3c-1.2-0.1-2.2-0.8-2.7-1.8l-0.2-0.3l-0.3-0.5l0,0l-0.1-0.3l-0.2-0.4l-2.6-5.3l-2.6,5.4
		l-0.1,0.3l-0.3,0.6l-0.2,0.4c-0.5,1-1.5,1.7-2.7,1.8l-2.5,0.3l-5.6,0.6l0.7,0.6l1.8,1.5l3.5,3c0.8,0.8,1.2,1.9,1,2.9l-1.6,7.4
		l7.2-3.6c0.3-0.2,0.6-0.3,0.9-0.3l0,0c0.2,0,0.5-0.1,0.7-0.1c0.5,0,1.1,0.1,1.6,0.4l7.1,3.7l-1.6-7.4c-0.2-1.1,0.1-2.2,1-2.9
		l0.9-0.8l2.8-2.3l1.8-1.5l0.6-0.5L135.4,64.8z M79,64.8l-2.1-0.2c-1.2-0.1-2.2-0.8-2.7-1.8l-0.6-1.3l-1-2.1l-1.8-3.6l-2.7,5.7
		l-0.6,1.3c-0.5,0.9-1.3,1.5-2.3,1.7l-0.3,0.1l-2.5,0.3L60.9,65l-1.6,0.2l-2.6,0.3l0.4,0.3l1.8,1.5l3.9,3.3c0.5,0.5,0.9,1.2,1,1.9
		c0.1,0.4,0.1,0.7,0,1.1l-1.6,7.5l2.2-1.2l0.1-0.1l4.7-2.5c0.5-0.3,1.1-0.4,1.6-0.4s1.1,0.1,1.6,0.4l7.1,3.8L78,73.7
		c-0.2-1.1,0.1-2.2,1-3l1.1-1l2.7-2.4l1.7-1.5l0.4-0.3l-2.3-0.3L79,64.8L79,64.8z"/>
</g>
<g>
	<path class="st9" d="M103.8,65.8l-0.3-0.3l-3.3-2.8l-1.5-1.3h-0.4l-3.9,3.4l-1.1,0.9l-1.8,1.5h14.1L103.8,65.8z M93.9,32.3
		c0-1.4-0.2-2.9-0.4-4.3c-0.7-4-2.1-7.9-4-11.5c-0.5-0.9-1-1.8-1.5-2.7c-0.6-0.9-1.1-1.8-1.7-2.7c-2-2.9-4.2-5.4-6.3-7.5
		c-0.8-0.8-1.7-1.6-2.5-2.3l-1.1-0.9l-1.3,0.2c-5.9,1-10.4,4.7-13.6,8.9c-3.2,4.2-5.3,8.9-6.4,12c-1.1,0.3-2.2,0.8-3.3,1.4l-2.5,1.6
		c-1,0.6-1.9,1.4-2.6,2.2c-2.7-1.4-5.5-2.3-8.1-2.8c-8.6-1.9-15.8-0.3-16-0.2l-1.4,0.2l-0.6,1.2C16.8,32.7,17,40,19.2,46.6
		c3.6,10.5,12.7,19,19.1,23.2l0.8,0.5l0.4,0.3l1.3-0.4c0.4-0.1,0.8-0.3,1.2-0.4c1.1-0.4,2.1-1,3.1-1.6c1.1-0.7,2.1-1.4,3-2.3
		l-2.2-1.9l-0.2-0.2l-2-1.8c-0.2,0.2-0.5,0.4-0.7,0.6c-0.8,0.6-1.6,1.1-2.5,1.5l-0.5-0.4C35.7,60.5,25.1,51.4,23.6,40
		c-0.4-3.4,0-7.1,1.6-10.9c1.6-0.2,4.4-0.5,7.9-0.2c3.3,0.3,7,1.1,10.7,2.9c-0.2,0.9-0.4,1.7-0.5,2.6c-3.4-0.4-9.6-0.4-16.1,2.7
		l0.6,2.4c0,0,5.6-3.9,15.8-1.3c0.1,0.5,0.3,1,0.4,1.5l-13,7.1l1,1.6l13.5-5.9c0.1,0.2,0.3,0.4,0.4,0.6c0.6,0.7,1.2,1.4,1.9,2
		c-1.7,5.2-4.2,8.3-6.2,10.1c-1.8,1.6-3.2,2.2-3.2,2.2L40,59c0.3-0.2,0.6-0.4,0.9-0.6c1.3-0.9,2.5-1.8,3.6-2.8c2.2-2,3.8-4.2,4.9-6
		c0.7-1.2,1.2-2.2,1.5-2.9c0.3,0.1,0.5,0.2,0.8,0.3c-0.8,3.3-2.4,7.8-5,11.5c-0.6,0.8-1.2,1.5-1.8,2.2l1.4-0.2l2.8-0.3l3.7-0.4
		c2.6-4.2,4-8.9,4.8-12.2c1.3-0.2,2.6-0.5,3.8-1.1c0.4-0.2,0.9-0.4,1.3-0.7l2.5-1.6l0.4-0.3l0.7,0.4c0.9,0.5,1.8,0.9,2.8,1.3
		l1.3-2.7l0.4-0.9l0.6,1.4l1.1,2.3l0.7,1.4l0.7,0.2c1.8,0.5,3.5,0.9,5.1,1.1c1.4,0.2,2.6,0.3,3.7,0.4c0.9,0.1,1.7,0.1,2.4,0.1
		c1.1,0,1.8-0.1,1.8-0.1l1.4-0.1l0.3-0.4l0.5-0.7c1.9-2.8,3.2-5.6,4-8.4C93.6,37.1,93.9,34.7,93.9,32.3L93.9,32.3z M59.6,41
		c-0.4,0.3-0.8,0.5-1.3,0.6c-1,0.3-2.1,0.5-3.2,0.3c-0.7-0.1-1.3-0.3-2-0.5c-0.9-0.4-1.7-1-2.3-1.7c-0.2-0.3-0.5-0.5-0.6-0.8
		c-0.4-0.7-0.7-1.4-0.8-2.2c-0.3-1.5-0.1-3.1,0.5-4.5c0.4-0.9,1-1.7,1.8-2.3c0.2-0.2,0.4-0.3,0.7-0.5l2.2-1.4l0.3-0.2
		c0.5-0.3,1-0.5,1.5-0.7c0.3-0.1,0.6-0.2,1-0.2c0.4-0.1,0.7-0.1,1.1-0.1c0.6,0,1.3,0.1,1.9,0.3l0.2,0.1c0.9,0.3,1.7,0.7,2.4,1.3
		c0.5,0.4,1,1,1.3,1.5c1.2,2,1.3,4.4,0.4,6.4c-0.4,0.9-1,1.7-1.7,2.3c-0.3,0.2-0.6,0.5-0.9,0.7l-1.6,1L59.6,41z M71.2,40.5
		c-0.5-0.2-1.1-0.5-1.6-0.8c0.5-0.9,0.8-1.8,1.1-2.7c0.1-0.5,0.3-1,0.3-1.6c0.5,0,1,0.1,1.5,0.1l0.2,0c1.8,0.1,3.9,0,6.3-0.4
		c2.3-0.4,4.9-1.1,7.5-2.3l-0.6-2.4c0,0-2.9,1.9-8.2,2.1c-1.9,0.1-4.2-0.1-6.7-0.6c-0.1-0.8-0.3-1.5-0.5-2.3l12.2-6.5l-1-1.6
		l-12.5,5.4c-0.5-0.8-1.1-1.4-1.7-2l-0.1-0.1c0.8-2,1.7-3.6,2.7-5c3.3-4.8,6.9-6.2,6.9-6.2l-0.1-0.1l-1.6-1.8
		c-3,1.8-5.3,3.9-7.2,5.9c-1.6,1.8-2.8,3.6-3.7,5.1c-0.7-0.4-1.5-0.7-2.3-0.9c-0.3-0.1-0.5-0.2-0.8-0.2c2.2-5.2,6.4-12.9,13.4-14.8
		c1.2,1.1,3.1,3.2,5.2,5.9c0.6,0.8,1.2,1.6,1.8,2.5c0.6,0.8,1.1,1.7,1.6,2.5c2,3.4,3.7,7.2,4.4,11.3c0.2,1.4,0.3,2.8,0.3,4.2
		c-0.1,2.6-0.6,5.3-1.8,7.9c-0.4,0.8-0.8,1.6-1.2,2.4c-1,0-2.4,0-4.1-0.2c-0.6-0.1-1.3-0.2-2-0.3c-2-0.3-4.2-0.9-6.4-1.8
		C72.1,40.9,71.6,40.7,71.2,40.5L71.2,40.5z"/>
</g>
<g>
	<path class="st10" d="M29.4,157.7c-2,2.2-3.2,5.1-3.2,8.1c0,3.2,1.2,6.2,3.5,8.5c2.9,2.9,7.1,3.9,11,3.1c2.1-0.4,4-1.3,5.6-2.8
		L29.4,157.7L29.4,157.7z M85.5,170c0.1,3.4,1.4,6.6,3.8,9l0.5,0.4c1.1,1,2.4,1.8,3.7,2.4c1.6,0.7,3.3,1,5,1c2,0,3.9-0.5,5.6-1.3
		c1-0.5,2-1.1,2.8-1.9c2.8-2.4,4.5-5.8,4.6-9.7L85.5,170L85.5,170z M167.8,157.8l-16.9,16.9c1.6,1.4,3.5,2.3,5.6,2.8
		c3.9,0.8,8.1-0.3,10.9-3.1c2.3-2.3,3.5-5.3,3.5-8.5C170.9,162.8,169.8,160,167.8,157.8L167.8,157.8z"/>
</g>
<g>
	<path class="st11" d="M59.3,134.7c-3-0.4-6.1,0.3-8.6,2c-0.5,0.4-1.1,0.8-1.5,1.3l-4.5,4.5l-4,3.9l3.9,3.9l13,13l8.5-8.5
		c2.3-2.3,3.5-5.3,3.5-8.5s-1.2-6.2-3.5-8.5C64.2,136.1,61.8,135,59.3,134.7L59.3,134.7z M111.3,137.4c-0.6-2.3-1.7-4.5-3.4-6.2
		c-2.5-2.5-5.7-3.9-9.3-3.9c-6.1,0-11.2,4.2-12.6,9.8c-0.3,1-0.4,2.1-0.4,3.1v13.2h26.1v-13.1c0-0.4,0-0.7-0.1-1.1
		C111.6,138.7,111.5,138,111.3,137.4z M148.1,138c-2.3-2.3-5.3-3.5-8.5-3.5c-1.5,0-2.9,0.3-4.2,0.8c-1.6,0.6-3,1.5-4.3,2.8
		c-2.3,2.3-3.5,5.3-3.5,8.5s1.2,6.2,3.5,8.5l8.5,8.5l17-17L148.1,138L148.1,138z"/>
</g>
<g>
	<path class="st12" d="M53.1,167.1l-8.5-8.5l-2.1-2.1l-0.8-0.8l-2.9-2.9l-4.3-4.3c-0.4-0.4-0.9-0.6-1.4-0.6c-0.6,0-1.1,0.2-1.5,0.6
		c-0.8,0.8-0.8,2.1,0,2.9l21.1,21.1c0.8,0.8,2.1,0.8,2.9,0c0.1-0.1,0.2-0.3,0.3-0.4v0c0.2-0.3,0.3-0.6,0.3-1c0-0.5-0.2-1.1-0.6-1.5
		L53.1,167.1L53.1,167.1z M114.6,159.3h-32c-0.6,0-1.2,0.2-1.6,0.7c-0.5,0.5-0.8,1.1-0.8,1.7c0,1.4,1.1,2.4,2.4,2.4h32
		c1.3,0,2.4-1.1,2.4-2.4C117,160.4,116,159.3,114.6,159.3z M165.7,148.7c-0.4-0.5-0.9-0.7-1.4-0.7c-0.6,0-1.1,0.2-1.5,0.6
		l-21.1,21.1c-0.2,0.2-0.4,0.5-0.5,0.8c-0.1,0.2-0.1,0.4-0.1,0.7c0,0.5,0.2,1.1,0.6,1.5c0.3,0.3,0.6,0.4,0.9,0.5
		c0.6,0.1,1.4,0,1.9-0.4l0.1-0.1l1.1-1.1l0.9-0.9l2.1-2.1l4.2-4.2l3-3l2.6-2.6l7.3-7.3c0.1-0.1,0.2-0.2,0.3-0.4
		C166.5,150.4,166.4,149.3,165.7,148.7L165.7,148.7z"/>
</g>
<g>
	<path class="st13" d="M86.8,103.4c1.5,1.1,3.2,2,5,2.7c0.4,0.2,0.9,0.3,1.4,0.5h0c0.3,0.1,0.7,0.2,1.1,0.3c1.5,0.4,3.1,0.6,4.7,0.5
		c2.8-0.1,5.5-0.8,7.9-1.9c5.1-2.5,8.7-7.3,9.8-12.9l-37.4,0.1C80.2,96.9,83,100.7,86.8,103.4z M100.2,97.7c4.4,0.9,6.5,2.1,7.8,5.3
		c-2.9,1.5-10.1,4.1-18.9-0.2C90.5,97.9,94.9,96.7,100.2,97.7z M43.7,62l2,1.8l0.2,0.2l2.2,1.9l4.7,4.1l4.7,4.2l-1.3,5.9l-2.6,12.3
		l2.7-1.4c0.8,2.1,1.8,4.1,2.9,6.1c4.7,8.1,11.9,14.6,20.9,18.4c2.7,1.2,5.6,2,8.7,2.6c9.8,1.9,19.5,0.4,27.8-3.6
		c7.7-3.7,14.3-9.6,18.7-17c1.5-2.5,2.8-5.2,3.7-8.1l4.4,2.3l-2.7-12.2l-1.2-5.6l4.7-4l5.2-4.4l2.7-2.3l2.6-2.2l-2.9-0.3l-3-0.3
		l-7.7-0.8l-1.5-0.2l-1.4-0.1l-2.9-0.3l-1.1-0.1l-2.8-5.6l-2.1-4.1l-3.2-6.3l-0.1-0.1l0,0l-2.6,5.3l-0.8,1.5l-1.9,3.8l-2.7,5.5
		l-0.5,0l-5.8,0.6l-0.3,0l-5.5,0.6l-5.8,0.6L98,60.9l0.1,0.1l-3.8-0.4L88.5,60l-3.1-0.3l-2.8-0.3L79,59l-0.3,0L76,53.3L73.5,48
		l-0.3-0.5l-0.7-1.4l-1.1-2.3l-0.6-1.4l-0.4,0.9L69.1,46l-3.5,7.3l-0.4,0.9l-2.3,4.8l-3.5,0.4l-3,0.3l-0.2,0l-1.2,0.1L52.8,60
		l-3.7,0.4l-2.8,0.3l-1.4,0.2l-1.6,0.2l-0.5,0.1l0.5,0.4L43.7,62L43.7,62z M74.2,62.8c0.5,1,1.5,1.7,2.7,1.8l2.1,0.2l3.7,0.4
		l2.3,0.3l-0.4,0.3l-1.7,1.5l-2.7,2.4l-1.1,1c-0.9,0.8-1.2,1.9-1,3l1.6,7.5l-7.1-3.8C72,77.2,71.5,77,70.9,77s-1.2,0.1-1.6,0.4
		l-4.7,2.5L64.5,80l-2.3,1.2l1.6-7.5c0.1-0.4,0.1-0.7,0-1.1c-0.1-0.7-0.5-1.4-1-1.9l-3.9-3.3l-1.8-1.5l-0.4-0.3l2.6-0.3l1.6-0.2
		l1.4-0.2l2.5-0.3l0.3-0.1c1-0.2,1.9-0.8,2.3-1.7l0.6-1.3l2.7-5.7l1.8,3.6l1,2.1L74.2,62.8L74.2,62.8z M123.5,61.5l0.1-0.3l2.6-5.4
		l2.6,5.3l0.2,0.4l0.1,0.3l0,0l0.3,0.5l0.2,0.3c0.5,1,1.5,1.7,2.7,1.8l3,0.3l5.1,0.6l-0.6,0.5l-1.8,1.5l-2.8,2.3l-0.9,0.8
		c-0.9,0.8-1.2,1.8-1,2.9l1.6,7.4l-7.1-3.7c-0.5-0.3-1.1-0.4-1.6-0.4c-0.2,0-0.5,0-0.7,0.1l0,0c-0.3,0.1-0.6,0.2-0.9,0.3l-7.2,3.6
		l1.6-7.4c0.2-1.1-0.2-2.2-1-2.9l-3.5-3l-1.8-1.5l-0.7-0.6l5.6-0.6l2.5-0.3c1.2-0.1,2.2-0.8,2.7-1.8l0.2-0.4L123.5,61.5L123.5,61.5z
		 M98.7,61.5l1.5,1.3l3.3,2.8l0.3,0.3l1.8,1.5l2.8,2.4l4.7,4l-1.2,5.6l-2.7,12.2l6.1-3.2l5-2.6l6-3.2l3.2,1.7l2.8,1.5l0.2,0.1
		c-5.4,17.5-23.6,28.6-42.3,25C77.1,108.3,67,99.1,62.8,87.4l1.9-1l1-0.5l5-2.6l6,3.2l3.2,1.7l7.9,4.2L85.2,80L83.9,74l4.7-4.2
		l2.4-2.1l0.5-0.4l1.8-1.5l1.1-0.9l3.9-3.4l0.2-0.2L98.7,61.5L98.7,61.5z M75.4,146.5c0-3.2-0.8-6.3-2.4-9c-0.8-1.3-1.7-2.6-2.8-3.7
		c-1.4-1.4-3-2.4-4.7-3.3c-2-0.9-4.1-1.5-6.3-1.7c-0.6-0.1-1.3-0.1-1.9-0.1c-4.5,0.1-9.1,1.7-12.4,5l-3.3,3.3l-2.9,2.9l-2.7,2.7
		c-2.8-1.1-6.4-0.7-8.7,1.6c-0.8,0.8-1.4,1.7-1.7,2.6c-0.8,2-0.8,4.2,0.1,6.1l-0.1,0.1c-3.4,3.3-5.2,7.8-5.2,12.6
		c-0.1,4.7,1.8,9.3,5.2,12.6c3.4,3.3,7.8,5.2,12.6,5.2c0.8,0,1.7-0.1,2.5-0.2v9.5h-6.2c-2.1,0-3.8,1.7-3.8,3.8
		c0,2.1,1.7,3.8,3.8,3.8h22.4c2.1,0,3.8-1.7,3.8-3.8S59,193,56.9,193h-6.2v-14.4l0.1-0.1l0.2-0.2c1,0.4,2,0.6,3.1,0.6
		c1.9,0,3.8-0.7,5.2-2l0.3-0.3c0.6-0.6,1.1-1.3,1.4-2.1c0.5-0.9,0.7-1.9,0.8-2.9c0-0.2,0-0.4,0-0.7c0-1.1-0.2-2.1-0.6-3l8.9-8.9
		C73.6,155.8,75.4,151.3,75.4,146.5L75.4,146.5z M29.8,174.3c-2.3-2.3-3.5-5.3-3.5-8.5c0-3,1.2-5.9,3.2-8.1l16.9,16.9
		c-1.6,1.4-3.5,2.4-5.6,2.8C36.9,178.1,32.6,177.1,29.8,174.3L29.8,174.3z M55.6,172.6c-0.8,0.8-2.2,0.8-2.9,0l-21.1-21.1
		c-0.8-0.8-0.8-2.1,0-2.9c0.4-0.4,0.9-0.6,1.5-0.6c0.5,0,1,0.2,1.4,0.6l4.3,4.3l2.9,2.9l0.8,0.8l2.1,2.1l8.5,8.5l2.5,2.5
		c0.3,0.4,0.6,0.9,0.6,1.5c0,0.4-0.1,0.7-0.3,1v0C55.8,172.3,55.7,172.4,55.6,172.6z M57.6,163.4l-13-13l-3.9-3.9l4-3.9l4.5-4.5
		c0.5-0.5,1-0.9,1.5-1.3c2.5-1.7,5.6-2.4,8.6-2c2.5,0.3,5,1.4,6.8,3.3c2.3,2.3,3.5,5.3,3.5,8.5s-1.2,6.2-3.5,8.5L57.6,163.4
		L57.6,163.4z M117.5,154v-13.6c0-1.3-0.1-2.5-0.4-3.7c-0.1-0.5-0.2-0.9-0.3-1.4c-0.9-3.1-2.5-6-4.9-8.3c-3.6-3.6-8.3-5.6-13.4-5.6
		c-8.5,0-15.8,5.7-18.1,13.5c-0.3,1-0.5,2-0.6,3.1c-0.1,0.8-0.2,1.6-0.2,2.4V154c-1.1,0.4-2.1,1-2.9,1.9c-1.6,1.5-2.5,3.6-2.5,5.9
		c0,3.5,2.2,6.5,5.3,7.7v0.3c0,2.9,0.7,5.8,2,8.3c0.6,1.2,1.3,2.4,2.2,3.4c0.4,0.6,0.9,1.1,1.4,1.6c0.7,0.7,1.5,1.4,2.3,1.9
		c1.8,1.3,3.9,2.3,6.1,2.9v4.6h-6.7c-2.2,0-4,1.8-4,4c0,2.2,1.8,4,4,4h24c2.2,0,4-1.8,4-4s-1.8-4-4-4h-6.7v-4.7
		c1.8-0.6,3.4-1.4,4.9-2.4c1.4-0.9,2.7-2.1,3.8-3.4c0.9-1,1.7-2.1,2.3-3.4c1.4-2.7,2.3-5.7,2.3-9v-0.3c3.1-1.2,5.3-4.2,5.3-7.7
		C122.8,158.2,120.6,155.2,117.5,154L117.5,154z M107.1,179.7c-0.9,0.7-1.8,1.4-2.8,1.9c-1.7,0.8-3.6,1.3-5.6,1.3
		c-1.8,0-3.5-0.4-5-1c-1.4-0.6-2.6-1.4-3.7-2.4c-0.2-0.1-0.3-0.3-0.5-0.4c-2.4-2.4-3.8-5.6-3.8-9h26.1
		C111.6,173.8,109.8,177.3,107.1,179.7z M85.6,140.4L85.6,140.4c0-1.2,0.2-2.2,0.4-3.2c1.4-5.6,6.6-9.8,12.6-9.8
		c3.5,0,6.8,1.3,9.3,3.9c1.7,1.7,2.9,3.9,3.4,6.2c0.2,0.6,0.3,1.3,0.3,2c0,0.4,0.1,0.7,0.1,1.1v13.1H85.6L85.6,140.4z M82.6,164.1
		c-1.3,0-2.4-1.1-2.4-2.4c0-0.6,0.3-1.2,0.8-1.7c0.4-0.5,1-0.7,1.6-0.7h32c1.3,0,2.4,1.1,2.4,2.4c0,1.4-1.1,2.4-2.4,2.4H82.6z
		 M158.9,183.7c4.7,0,9.3-1.9,12.6-5.3c3.4-3.3,5.2-7.8,5.2-12.6c0.1-4.8-1.8-9.3-5.2-12.6c0.4-0.9,0.6-1.9,0.6-2.9
		c0-2.1-0.7-4.2-2.3-5.8c-2.2-2.2-5.7-2.8-8.6-1.7l-9-9c-0.7-0.7-1.5-1.3-2.3-1.9c-1.9-1.3-4.1-2.2-6.3-2.7
		c-2.7-0.6-5.5-0.6-8.2,0.1c-1.7,0.4-3.3,1-4.9,1.9c-1.3,0.7-2.4,1.6-3.5,2.6c-1.2,1.2-2.2,2.6-3,4c-1.4,2.6-2.2,5.5-2.2,8.6
		c-0.1,4.7,1.8,9.3,5.2,12.6l8.9,8.9c-0.3,0.6-0.4,1.2-0.5,1.8c-0.1,0.4-0.1,0.9-0.1,1.3s0,0.9,0.1,1.3l0.1,0.5
		c0.2,1,0.7,1.9,1.3,2.7c0.2,0.3,0.5,0.7,0.8,1c0.5,0.5,1,0.9,1.6,1.2c1.2,0.7,2.5,1.1,3.9,1.1c1.1,0,2.1-0.2,3.1-0.6l0.1,0.1
		l0.2,0.2V193h-6.2c-2.1,0-3.8,1.7-3.8,3.8s1.6,3.8,3.8,3.8h22.4c2.1,0,3.8-1.6,3.8-3.8c0-2.1-1.6-3.8-3.8-3.8h-6.2v-9.5
		C157.2,183.6,158.1,183.7,158.9,183.7L158.9,183.7z M142.6,173.1c-0.4-0.1-0.7-0.3-0.9-0.5c-0.4-0.4-0.6-0.9-0.6-1.5
		c0-0.3,0-0.5,0.1-0.7c0.1-0.3,0.2-0.5,0.5-0.8l21.1-21.1c0.4-0.4,0.9-0.6,1.5-0.6c0.5,0,1,0.2,1.4,0.7c0.7,0.7,0.8,1.7,0.3,2.5
		c-0.1,0.1-0.2,0.2-0.3,0.4l-7.3,7.3l-2.6,2.6l-3,3l-4.2,4.2l-2.1,2.1l-0.9,0.9l-1.1,1.1l-0.1,0.1
		C143.9,173.1,143.2,173.3,142.6,173.1L142.6,173.1z M131.1,138c1.2-1.2,2.7-2.2,4.3-2.8c1.3-0.5,2.7-0.8,4.2-0.8
		c3.2,0,6.2,1.2,8.5,3.5l8.5,8.5l-17,17l-8.5-8.5c-2.3-2.3-3.5-5.3-3.5-8.5C127.6,143.3,128.8,140.3,131.1,138L131.1,138z
		 M156.4,177.4c-2.1-0.4-4-1.3-5.6-2.8l16.9-16.9c2,2.2,3.1,5.1,3.1,8.1c0,3.2-1.2,6.2-3.5,8.5C164.5,177.2,160.3,178.2,156.4,177.4
		z"/>
</g>
<g>
	<path class="st14" d="M170,85.6L168,69l-2,16.6l-10.1,1.4v1.5l10.1,1.4l2,16.6l2-16.6l15.8-2.1L170,85.6z M24.3,106.5L23,117.7
		l-10.6,1.4l10.6,1.4l1.3,11.1l1.4-11.1l10.6-1.4l-10.6-1.4L24.3,106.5z M169,56.4l1.3,11.1l1.3-11.1l10.5-1.4l-10.5-1.4l-1.3-11.1
		L169,53.6L158.4,55L169,56.4z M21.3,106.8l1.6-13.7L36,91.4l-13-1.7l-1.6-13.8l-1.6,13.8l-13,1.7h0h0l13,1.8L21.3,106.8z"/>
	<circle class="st14" cx="179.3" cy="103.9" r="2.9"/>
	<circle class="st14" cx="32.9" cy="80.5" r="2.9"/>
	<circle class="st14" cx="155.8" cy="39.5" r="2.9"/>
</g>
</svg>
