<svg xmlns="http://www.w3.org/2000/svg" xmlns:xlink="http://www.w3.org/1999/xlink" width="35" height="33.97" viewBox="0 0 35 33.97">
  <defs>
    <style>
      .cls-1 {
        fill: #fff;
        fill-rule: evenodd;
        filter: url(#filter);
      }
    </style>
    <filter id="filter" x="647" y="3559.03" width="35" height="33.97" filterUnits="userSpaceOnUse">
      <feOffset result="offset" dy="1" in="SourceAlpha"/>
      <feGaussianBlur result="blur" stdDeviation="1"/>
      <feFlood result="flood" flood-opacity="0.25"/>
      <feComposite result="composite" operator="in" in2="blur"/>
      <feBlend result="blend" in="SourceGraphic"/>
    </filter>
  </defs>
  <path id="behance" class="cls-1" d="M663.806,3589.76a15.37,15.37,0,1,1,15.35-15.37A15.359,15.359,0,0,1,663.806,3589.76Zm0.163-18.02c0-3.47-3.775-3.19-3.775-3.19h-5.6l0.007,12.32,5.223-.03s4.494,0.34,4.534-3.69a2.923,2.923,0,0,0-1.895-2.92A2.547,2.547,0,0,0,663.969,3571.74Zm8.336-2.52h-4.792v1.37h4.792v-1.37Zm-2.451,2.1c-4.587,0-4.361,4.82-4.361,4.82s-0.256,4.74,4.451,4.74a3.907,3.907,0,0,0,4.15-2.99h-2.331a1.759,1.759,0,0,1-1.759,1.03,2.086,2.086,0,0,1-2.2-2.19l6.39-.03S674.861,3571.32,669.854,3571.32Zm-0.015,1.97a1.918,1.918,0,0,1,2.015,1.87l-4,.03A2.024,2.024,0,0,1,669.839,3573.29Zm-10.116,5.41-2.606-.01-0.01-3.28s1.585,0.01,2.651.01c0,0,2.01-.14,2.01,1.53A1.742,1.742,0,0,1,659.723,3578.7Zm0.02-5.3-2.631.01v-2.72l2.273,0.01s2.133-.28,2.133,1.31S659.743,3573.4,659.743,3573.4Z" transform="translate(-647 -3559.03)"/>
</svg>
