<?xml version="1.0" encoding="utf-8"?>
<!-- Generator: Adobe Illustrator 21.0.0, SVG Export Plug-In . SVG Version: 6.00 Build 0)  -->
<svg version="1.1" id="Layer_1" xmlns="http://www.w3.org/2000/svg" xmlns:xlink="http://www.w3.org/1999/xlink" x="0px" y="0px"
	 viewBox="0 0 200 200" style="enable-background:new 0 0 200 200;" xml:space="preserve">
<style type="text/css">
	.st0{fill:#64C9D7;}
	.st1{fill:#ADDFE6;}
	.st2{fill:#3CBFD1;}
	.st3{fill:#6D6E70;}
	.st4{fill:#9CDDE6;}
	.st5{fill:#FFFFFF;}
	.st6{fill:#808184;}
	.st7{fill:#231F20;}
	.st8{fill:#B1B3B3;}
	.st9{fill:#E6E7E8;}
	.st10{fill:#A6CE42;}
	.st11{fill:#373737;}
</style>
<g>
	<path class="st0" d="M136.6,7.5v23.3c1.9,2.5,2.9,5.2,2.9,8c-0.1,5-3.4,9.3-8.8,12.6l7.5,18.6c3.7-0.4,7.6-0.2,11.4,0.3l-1.1-9.1
		l-11.2-1.5l11.2-1.5l1.4-11.7l1.4,11.7l11.2,1.5l-11.2,1.5l-1.1,9.2c7.8,1.1,15,3.7,19.3,5.4c1.4-3.5,4.1-8.4,8.4-9.7
		c0.9-0.3,2,0,2.8,0.6c0,0,5.5,4,4.7,6.3c-0.8,2.4-4.6,0.7-6.5,6.1c9.3,3.1,14.8,7.5,17.8,12.3C195.1,53.1,170.7,20.6,136.6,7.5z
		 M71.7,37.6c0-2.7,1-5.2,2.9-7.6V7.7c0.1-0.1,0.2-0.2,0.3-0.2c-0.2-0.6-0.3-1.2-0.3-1.8C36.6,17.7,9,53.3,9,95.3
		c0,20.8,6.8,40.1,18.2,55.7l4.8-9.4l24.9-67.8l-16.1,2.1l-2.7,22.4l-2.7-22.4l-21.3-2.8l21.3-2.8l2.7-22.5l2.7,22.5l16.6,2.2
		l3.2-8.7l9.4,3.4l9-17.7c-1.2-0.8-2.2-1.7-3.1-2.7C73,44.2,71.6,40.9,71.7,37.6L71.7,37.6z M44.5,169.1l0.7,0.3
		c-1.2-0.9-2.4-1.8-3.6-2.7C42.5,167.5,43.5,168.3,44.5,169.1z"/>
</g>
<path class="st1" d="M45.2,169.3c8.9,6.3,19.7,10.4,30.7,13c-1.1-1.3-2.2-2.7-3.1-4.1C62.3,175.7,52.9,172.5,45.2,169.3z
	 M66.2,163.9c-3.8-2.3-6.6-6.1-7.6-10.7c-0.1-0.5-0.2-1.1-0.3-1.6l-26.5-9.7l0.1-0.2l-4.8,9.4c4.2,5.7,9,10.9,14.4,15.6
	c1.2,0.9,2.3,1.8,3.6,2.7c7.8,3.1,17.2,6.4,27.6,8.8C69.8,173.8,67.6,169,66.2,163.9z M95.7,64.2c9.2-1.6,17.9,4.5,19.5,13.6
	c0.4,2.1,0.3,4.2-0.1,6.1l2.3,0.9c4.2-9.9,12.2-13.8,20.8-14.8l-7.5-18.6c-5.9,3.5-14.5,5.7-24.2,5.7h-1.3
	c-10.4-0.2-20.1-3-26.3-7.4l-9,17.7l13.9,5.1C86.3,68.2,90.5,65.1,95.7,64.2z M111.6,162.9l-2.7,7.3l-18.8-6.9
	c3.8,7.1,10.8,11.6,18,13.1c3.9,0.8,8.4,0.1,13-1.8l1.9-11.3L111.6,162.9L111.6,162.9z"/>
<g>
	<path class="st2" d="M128.4,31.1L128.4,31.1l-0.8-0.5c-5.3-3.3-13.2-5.3-21.7-5.4h-0.9c-9.4,0-18.1,2.3-23.2,6.1l-0.9,0.6
		c-2.3,2-3.3,3.9-3.3,5.8c-0.1,1.8,0.8,3.5,2.5,5.2c1.9,2,4.8,3.8,8.3,5.1c4.8,1.9,10.8,3,17.1,3.1h1.2c9.5,0,17.2-2.3,21.9-5.3
		c3.3-2.1,5.2-4.7,5.2-7.1C133.8,36.1,131.8,33.5,128.4,31.1L128.4,31.1z M84.2,38.9c0-6.2,11.3-8.4,21.1-8.4s21.1,2.2,21.1,8.4
		s-11.3,8.4-21.1,8.4C95.5,47.4,84.2,45.2,84.2,38.9z M119.9,38.9c-1.9-1.1-6.9-2.5-14.7-2.5s-12.8,1.4-14.7,2.5
		c1.9,1.1,6.9,2.5,14.7,2.5S118.1,40,119.9,38.9z"/>
</g>
<path class="st3" d="M136.6,30.8L136.6,30.8c-1.5-1.9-3.4-3.5-5.7-5l-0.7-0.6h-0.4c-6.1-3.6-14.8-5.7-23.9-5.9h-1.1
	c-10.3,0-19.8,2.4-25.9,6.7l-0.9,0.6c-1.4,1-2.5,2.1-3.5,3.3L74.5,30c-1.8,2.3-2.8,4.9-2.9,7.6c-0.1,3.3,1.3,6.6,4.1,9.4
	c0.9,1,2,1.8,3.1,2.7c6.2,4.4,15.9,7.2,26.3,7.4h1.3c9.7,0,18.2-2.1,24.2-5.7c5.4-3.2,8.7-7.6,8.8-12.6
	C139.6,36,138.6,33.3,136.6,30.8z M105.3,51.2c-6.3-0.1-12.3-1.3-17.1-3.1C84.8,46.7,81.9,45,80,43c-1.7-1.7-2.5-3.5-2.5-5.2
	c0-1.9,1.1-3.8,3.3-5.8l0.9-0.6c5.1-3.8,13.8-6.1,23.2-6.1h0.9c8.5,0.1,16.4,2.1,21.7,5.4l0.7,0.5h0.1c3.5,2.3,5.4,5,5.4,7.6
	c-0.1,2.5-1.9,5-5.2,7.1c-4.7,3.1-12.4,5.3-21.9,5.3H105.3z"/>
<path class="st4" d="M105.2,30.5c-9.7,0-21.1,2.2-21.1,8.4s11.3,8.4,21.1,8.4c9.8,0,21.1-2.2,21.1-8.4S114.9,30.5,105.2,30.5z
	 M105.3,41.5c-7.7,0-12.8-1.5-14.7-2.5c1.8-1.1,6.9-2.5,14.7-2.5s12.8,1.5,14.7,2.5C118.1,40,113,41.5,105.3,41.5z"/>
<g>
	<path class="st5" d="M56.8,73.9l0.5-1.3l-16.6-2.2l-2.7-22.5l-2.7,22.5l-21.3,2.8l21.3,2.8l2.7,22.4l2.7-22.4L56.8,73.9z
		 M149.8,46.5l-1.4,11.7l-11.2,1.5l11.2,1.5l1.1,9.1l0.6,0.1l1.1-9.2l11.2-1.5l-11.2-1.5L149.8,46.5z"/>
	<circle class="st5" cx="49.8" cy="59.2" r="4.3"/>
	<circle class="st5" cx="160.4" cy="48.7" r="4.3"/>
	<circle class="st5" cx="25.2" cy="87.8" r="4.3"/>
	<path class="st5" d="M68.8,109.9l3.6-0.1c-0.7-2-1.4-4-2.1-6.1L68.8,109.9z M64.7,126.3c-0.2,0.7-0.6,1.2-1.1,1.6
		c5-1.1,10-1.8,15.1-2.1l-0.2-0.3c-1.4-3.3-2.7-6.6-4-9.9l-7.3,0.3L64.7,126.3L64.7,126.3z M112.9,89.4c-2.5,3.9-6.6,6.9-11.6,7.7
		c-9.2,1.6-18-4.5-19.5-13.6c-0.3-1.9-0.3-3.7,0-5.5l-14.6-5.4l-3.1-1.2l-9.6,26l-15,40.9l19.3,7.1c1.6-5.9,6.4-10.8,12.9-12.2
		c9.2-1.9,18.1,3.8,20,12.8c0.8,3.9,0.2,7.7-1.5,11l3.4,1.3l10.5-26.8c-0.6,0.9-1.8,1.5-2.9,1.3c-14.8-2.5-30.1-1.5-44.3,3
		c-0.3,0.1-0.6,0.1-0.9,0.1c-1.2,0-2.4-0.8-2.8-2.1c-0.5-1.5,0.3-3.2,1.9-3.7c2-0.6,4-1.2,6-1.7l-0.1,0c-1.6-0.4-2.5-2-2.1-3.6
		l2.5-10c-0.4-0.5-0.6-1.1-0.6-1.7c0-1.3,0.7-2.3,1.8-2.8l4.6-18.3c0.3-1.3,1.5-2.2,2.8-2.2c1.4,0.1,2.5,0.8,2.9,2.1
		c3.1,10.6,6.8,21.1,11.1,31.2c0.3,0.8,0.3,1.7-0.1,2.4c6.1-0.1,12.3,0.4,18.4,1.4c1.6,0.3,2.7,1.7,2.4,3.3l5.5-14.2l0.2-0.9
		c0.7-2.2,1.6-4.4,2.6-6.5c0.1-0.4,0.4-1.7,1.2-3.6c-0.1-5.8,0.4-10.7,1.4-14.8L112.9,89.4z M104.2,115.1c-0.3,1.3-1.5,2.2-2.9,2.2
		c-0.2,0-0.5,0-0.7-0.1c-1.7-0.4-3.8-0.8-6-1.2l-0.7,7c-0.2,1.5-1.5,2.6-2.9,2.6h-0.3c-1.7-0.2-2.8-1.7-2.6-3.2l0.8-7.3
		c-2.3-0.4-4.4-0.8-6.1-1.2c-1.6-0.3-2.5-1.9-2.2-3.5s1.9-2.5,3.5-2.2c1.5,0.4,3.4,0.7,5.4,1.1l0.7-6.9c0.2-1.7,1.7-2.8,3.2-2.6
		c1.7,0.2,2.8,1.7,2.6,3.2l-0.8,7.2c2.5,0.4,4.9,0.8,6.8,1.3C103.6,111.9,104.5,113.5,104.2,115.1z"/>
</g>
<g>
	<path class="st6" d="M136.4,7.4c-10.4-4-21.7-6.2-33.5-6.2c-7.9,0-15.5,1-22.9,2.8c-1.8,0.5-3.7,0.9-5.4,1.5v0
		c0,0.6,0.1,1.2,0.3,1.8c-0.1,0.1-0.2,0.1-0.3,0.2V30l0.1-0.1c0.9-1.2,2.1-2.3,3.5-3.3l0.9-0.6c6.2-4.3,15.6-6.7,25.9-6.7h1.1
		c9.1,0.2,17.8,2.3,23.9,5.9h0.4l0.7,0.6c2.3,1.5,4.2,3.1,5.6,5V7.5C136.5,7.5,136.4,7.4,136.4,7.4z M60.5,63.9l-3.2,8.7l-0.5,1.3
		L32,141.7l-0.1,0.2l26.5,9.7c-0.1-1.1-0.1-2.1,0-3.1c0.1-1,0.3-2,0.5-2.9l-19.3-7.1l15-40.9l9.6-26l3.1,1.2L81.8,78
		c0.2-1,0.4-1.9,0.7-2.8c0.3-0.9,0.8-1.8,1.3-2.7l-13.9-5.1L60.5,63.9L60.5,63.9z M114.2,86.8c-0.4,0.9-0.8,1.8-1.3,2.6l2.7,1
		c0.2-1,0.5-1.9,0.8-2.8c0.3-1,0.7-1.9,1-2.8l-2.3-0.9C114.9,84.9,114.6,85.9,114.2,86.8z M96.6,162.5l-4.4-0.1l0.5-1.3l1.1-2.7
		l-3.4-1.3c-0.5,0.9-1,1.7-1.6,2.5l-0.1,0.2c0.4,1.2,0.9,2.4,1.5,3.5l18.8,6.9l2.7-7.3l-3.1-0.1L96.6,162.5L96.6,162.5z"/>
</g>
<path class="st7" d="M196.7,91.5c-3-4.8-8.5-9.2-17.8-12.3c1.9-5.3,5.7-3.6,6.5-6.1c0.8-2.3-4.7-6.3-4.7-6.3
	c-0.8-0.6-1.9-0.9-2.8-0.6c-4.3,1.3-6.9,6.1-8.4,9.7c-4.3-1.8-11.5-4.3-19.3-5.4l-0.6-0.1c-3.8-0.5-7.6-0.7-11.4-0.3
	c-8.6,0.9-16.5,4.9-20.8,14.8c-0.4,0.9-0.7,1.8-1,2.8c-0.3,0.9-0.6,1.8-0.8,2.8c-1,4.1-1.5,9-1.4,14.8c1.3-3.2,3.9-7.8,8.6-12.1
	c0.8-0.7,1.7-1.4,2.6-2.2c0.9-0.7,1.9-1.4,3-2.1c4-2.4,8.9-4.4,15-5.6c1.6-0.3,3.2-0.5,5-0.7c0.1,0,32.9-3.3,43.9,20.7
	c1.3,1.9,2.4,3.9,3.4,6c0.5,1.1,1,2.2,1.4,3.3c0.3,0.6,0.5,1.3,0.7,2C199.9,108.9,201.9,99.7,196.7,91.5L196.7,91.5z"/>
<path class="st8" d="M144.2,151.5L144.2,151.5L144.2,151.5z M165.1,149.5L165.1,149.5l-0.3,0.2L165.1,149.5z M164.4,147.5
	c-1.9-3.9-6.1-4.9-10.9-3.9c-2.7,0.5-4.7,1.6-6.3,3l11,4.3C160.1,150.3,162.2,149.2,164.4,147.5z M158.1,150.9l-11-4.3
	c-0.9,0.9-1.6,1.9-2.2,3C147.5,151,152.3,152.8,158.1,150.9L158.1,150.9z"/>
<g>
	<path class="st9" d="M78.7,166c-1.9,0.4-3.9,0.5-5.8,0.2c1.4,3.7,3.3,7.1,5.6,10.3l9.8-5.7c-1.7-2-3.1-4.4-4.2-6.9
		C82.4,164.8,80.6,165.6,78.7,166z M77.5,160.5c0.9-0.2,1.8-0.5,2.6-0.9c0.8-0.4,1.5-0.9,2.2-1.4c0.3-0.2,0.5-0.4,0.7-0.6
		c0.8-0.7,1.4-1.5,1.9-2.4c0.9-1.6,1.5-3.5,1.5-5.4c0-0.8-0.1-1.6-0.2-2.4c-1.3-6-7.2-9.8-13.3-8.5c-4.5,1-7.8,4.5-8.7,8.7
		c-0.2,1-0.3,2-0.2,3.1c0,0.5,0.1,1,0.2,1.4c0.1,0.5,0.3,1,0.4,1.5l0.2,0.5c1.2,2.8,3.5,4.9,6.3,6C73.1,160.7,75.3,160.9,77.5,160.5
		L77.5,160.5z M192.1,124.6c-0.6-6.2-2.8-11.9-6-16.9h-42.7l-2.9-10.9l-6.7,10.9l-2.1,0.1l-3.2,0.2l-3.2,0.2l-3.5,0.2
		c-3.7,5.8-5.8,12.8-5.8,20.2c0,1.4,0.1,2.9,0.2,4.3c0.2,1.9,0.6,3.8,1,5.6c0.4,1.5,0.9,3,1.5,4.5c3.3,8.3,9.5,15.1,17.3,19.3
		c0.9,0.5,1.9,1,2.9,1.4c0.8,0.3,1.6,0.6,2.3,0.9c4,1.4,8.3,2.2,12.8,2.2c1.1,0,2.1-0.1,3.2-0.1c2-0.2,3.9-0.5,5.8-0.9l0.2-0.1
		l0.2-0.1c1.4-0.4,2.8-0.8,4.2-1.3c14.4-5.5,24.6-19.4,24.6-35.6C192.3,127.2,192.3,125.9,192.1,124.6L192.1,124.6z M133,116.3
		c-3.8,0.2-5.6,2.8-5.2,6.3l0.5,4.5l-3.8,0.4l-0.7,0.1l-0.5-4.3c0-0.3,0-0.5-0.1-0.8c-0.1-2.8,0.9-5.4,2.7-7.3
		c1.1-1.2,2.5-2.1,4.1-2.7c0.7-0.2,1.4-0.4,2.1-0.5c5.5-0.7,10.5,3.3,11.2,8.8l0.5,4.3l-3.9,0.5l-0.5-4.3
		C139.1,119.2,137.2,116.1,133,116.3L133,116.3z M168.7,146.3c-0.8,0.9-1.8,1.8-2.8,2.6c-0.9,0.7-1.9,1.4-2.9,2
		c-0.6,0.4-1.3,0.8-2.1,1.1c-2.8,1.4-6.6,2.5-10.7,1.9c-1.5-0.2-3.1-0.7-4.6-1.6c-0.4-0.2-0.9-0.5-1.4-0.8h0l-0.3-0.2
		c-1.3-0.7-2.5-1.5-3.5-2.5c-2.9-2.6-5-6-5.9-9.9l30.7-1.4l8.2-0.4C172.7,140.5,171.1,143.7,168.7,146.3L168.7,146.3z M180.8,122.5
		l-0.6-4.2c-0.2-2.3-2.2-5.5-6.4-5.2c-3.8,0.2-5.6,2.8-5.2,6.3l0.5,4.5l-4.5,0.5l-0.5-4.3c-0.6-5.5,3.3-10.5,8.8-11.2
		c5.5-0.7,10.5,3.3,11.2,8.8l0.6,4.2L180.8,122.5z M96.7,69.8c-3.1,0.5-5.7,2.3-7.4,4.7c-0.6,0.8-1,1.7-1.4,2.7
		C87.6,78,87.4,79,87.3,80c-0.1,0.8,0,1.7,0.1,2.5c1,6,6.8,10.1,12.9,9c2.9-0.5,5.3-2,7-4.2c0.6-0.8,1.1-1.6,1.5-2.6
		c0.4-0.9,0.7-1.9,0.8-2.9c0.1-1,0.1-2.1-0.1-3.2C108.6,72.8,102.8,68.7,96.7,69.8L96.7,69.8z"/>
</g>
<g>
	<path class="st10" d="M82.7,113.9c1.7,0.4,3.9,0.8,6.1,1.2l-0.8,7.3c-0.2,1.6,0.9,3.1,2.6,3.2h0.3c1.5,0,2.8-1.1,2.9-2.6l0.7-7
		c2.2,0.4,4.3,0.8,6,1.2c0.2,0.1,0.5,0.1,0.7,0.1c1.3,0,2.5-0.9,2.9-2.2c0.3-1.6-0.6-3.2-2.2-3.5c-1.9-0.4-4.3-0.9-6.8-1.3l0.8-7.2
		c0.2-1.6-0.9-3.1-2.6-3.2c-1.5-0.2-3.1,0.9-3.2,2.6l-0.7,6.9c-2-0.3-3.9-0.7-5.4-1.1c-1.6-0.3-3.2,0.6-3.5,2.2
		C80.1,111.9,81.1,113.5,82.7,113.9z M102.2,127c-6.1-1-12.2-1.5-18.4-1.4c0.4-0.8,0.4-1.6,0.1-2.4C79.6,113,75.9,102.6,72.8,92
		c-0.3-1.3-1.5-2-2.9-2.1c-1.3,0.1-2.5,0.9-2.8,2.2l-4.6,18.3c-1.1,0.5-1.8,1.6-1.8,2.8c0,0.7,0.3,1.2,0.6,1.7l-2.5,10
		c-0.4,1.6,0.5,3.2,2.1,3.6l0.1,0c-2,0.5-4,1.1-6,1.7c-1.6,0.5-2.4,2.2-1.9,3.7c0.4,1.2,1.6,2.1,2.8,2.1c0.3,0,0.6-0.1,0.9-0.1
		c14.2-4.5,29.6-5.5,44.3-3c1.2,0.2,2.3-0.4,2.9-1.3c0.2-0.3,0.4-0.7,0.5-1.1l0-0.1C104.9,128.7,103.8,127.3,102.2,127L102.2,127z
		 M70.3,103.8c0.7,2,1.4,4,2.1,6.1l-3.6,0.1L70.3,103.8z M63.6,128c0.5-0.4,0.9-0.9,1.1-1.6l2.6-10.5l7.3-0.3c1.3,3.3,2.6,6.6,4,9.9
		l0.2,0.3C73.6,126.2,68.5,126.9,63.6,128z"/>
</g>
<g>
	<path class="st11" d="M199.9,130.1c0.1-4.1-0.3-8.3-1.3-12.4c-0.3-1-0.5-2-0.8-3c-0.2-0.7-0.4-1.3-0.7-2c-0.4-1.1-0.9-2.3-1.4-3.3
		c-1-2.1-2.1-4.1-3.4-6c-11-24.1-43.9-20.7-43.9-20.7c-1.8,0.2-3.4,0.4-5,0.7c-6.1,1.1-11.1,3.2-15,5.6c-1.1,0.7-2.1,1.3-3,2.1
		c-0.9,0.7-1.8,1.4-2.6,2.2c-4.7,4.3-7.3,9-8.6,12.1c-0.8,1.8-1.1,3.1-1.2,3.6c-1,2.1-1.9,4.3-2.6,6.5c-0.1,0.3-0.2,0.6-0.2,0.9
		l-5.5,14.2l0,0.1c-0.1,0.4-0.3,0.8-0.5,1.1l-10.5,26.8l-1.1,2.7l-0.5,1.3l4.4,0.1l11.9,0.3l3.1,0.1l11.4,0.3l-1.9,11.3
		c-4.6,1.9-9.1,2.7-13,1.8c-7.2-1.5-14.2-6-18-13.1c-0.6-1.1-1.1-2.3-1.5-3.5l0.1-0.2c0.6-0.8,1.2-1.6,1.6-2.5
		c1.7-3.3,2.3-7.1,1.5-11c-1.9-9-10.9-14.8-20-12.8c-6.5,1.4-11.3,6.3-12.9,12.2c-0.3,1-0.4,1.9-0.5,2.9c-0.1,1-0.1,2.1,0,3.1
		c0.1,0.5,0.1,1.1,0.3,1.6c1,4.6,3.8,8.4,7.6,10.7c1.4,5.2,3.6,10,6.5,14.3c1,1.4,2,2.8,3.1,4.1c6.8,7.9,16.2,13.7,27.5,16.1
		c2.7,0.6,5.3,0.9,8.1,1.1c1.8,0.1,3.7,0.1,5.6,0l-0.1,0.5h77.1l-9.4-35.4l15.5,0.4C200,164.9,201.7,147.1,199.9,130.1L199.9,130.1z
		 M71.1,160c-2.8-1.1-5.1-3.2-6.3-6l-0.2-0.5c-0.2-0.5-0.3-1-0.4-1.5c-0.1-0.5-0.2-1-0.2-1.4c-0.1-1,0-2.1,0.2-3.1
		c0.9-4.2,4.2-7.7,8.7-8.7c6.1-1.3,12,2.5,13.3,8.5c0.2,0.8,0.2,1.6,0.2,2.4c0,1.9-0.6,3.8-1.5,5.4c-0.5,0.9-1.2,1.7-1.9,2.4
		c-0.2,0.2-0.5,0.4-0.7,0.6c-0.7,0.5-1.4,1-2.2,1.4c-0.8,0.4-1.7,0.7-2.6,0.9C75.3,160.9,73.1,160.7,71.1,160L71.1,160z M78.5,176.5
		c-2.3-3.1-4.2-6.6-5.6-10.3c1.9,0.2,3.8,0.2,5.8-0.2c2-0.4,3.8-1.2,5.4-2.2c1.1,2.6,2.5,4.9,4.2,6.9L78.5,176.5L78.5,176.5z
		 M167.8,164.2c-1.4,0.5-2.7,1-4.2,1.3l-0.2,0.1l-0.2,0.1c-1.9,0.4-3.8,0.8-5.8,0.9c-1.1,0.1-2.1,0.1-3.2,0.1
		c-4.5,0-8.8-0.8-12.8-2.2c-0.8-0.3-1.6-0.6-2.3-0.9c-1-0.4-1.9-0.9-2.9-1.4c-7.8-4.2-14-11-17.3-19.3c-0.6-1.4-1.1-2.9-1.5-4.5
		c-0.5-1.8-0.8-3.6-1-5.6c-0.2-1.4-0.2-2.8-0.2-4.3c0-7.4,2.1-14.3,5.8-20.2l3.5-0.2l3.2-0.2l3.2-0.2l2.1-0.1l6.7-10.9l2.9,10.9
		h42.6c3.3,4.9,5.4,10.7,6,16.9c0.1,1.3,0.2,2.6,0.2,4C192.4,144.9,182.2,158.7,167.8,164.2L167.8,164.2z M134.5,138.9
		c0.9,3.9,3,7.4,5.9,9.9c1.1,1,2.3,1.8,3.5,2.5l0.3,0.2l0,0c0.4,0.3,0.9,0.6,1.4,0.8c1.6,0.8,3.1,1.3,4.6,1.6
		c4.1,0.6,7.9-0.5,10.7-1.9c0.8-0.4,1.5-0.8,2.1-1.1c1-0.6,2-1.3,2.9-2c1-0.8,1.9-1.7,2.8-2.6c2.4-2.6,4.1-5.8,4.7-9.2l-8.2,0.4
		L134.5,138.9L134.5,138.9z M158.1,150.9c-5.8,1.9-10.6,0.1-13.2-1.3c0.6-1.1,1.3-2.1,2.2-3c1.6-1.5,3.6-2.5,6.3-3
		c4.8-0.9,9.1,0,10.9,3.9C162.2,149.2,160.1,150.3,158.1,150.9L158.1,150.9z M164.7,149.8l0.3-0.3v0L164.7,149.8z M172.9,108.9
		c-5.5,0.7-9.5,5.7-8.8,11.2l0.5,4.3l4.5-0.5l-0.5-4.5c-0.4-3.5,1.4-6.2,5.2-6.3c4.2-0.2,6.1,2.9,6.4,5.2l0.6,4.2l3.9-0.5l-0.6-4.2
		C183.5,112.2,178.5,108.2,172.9,108.9z M139.4,121.6l0.5,4.3l3.9-0.5l-0.5-4.3c-0.6-5.5-5.6-9.5-11.2-8.8c-0.7,0.1-1.4,0.3-2.1,0.5
		c-1.6,0.6-3,1.5-4.1,2.7c-1.8,1.9-2.8,4.5-2.7,7.3c0,0.3,0,0.5,0.1,0.8l0.5,4.3l0.7-0.1l3.8-0.4l-0.5-4.5c-0.4-3.5,1.4-6.2,5.2-6.3
		C137.2,116.1,139.1,119.2,139.4,121.6L139.4,121.6z M101.3,97.1c5-0.8,9.1-3.8,11.6-7.7c0.5-0.8,1-1.7,1.3-2.6
		c0.4-0.9,0.7-1.9,0.9-2.8c0.4-2,0.5-4,0.1-6.1c-1.6-9.1-10.3-15.2-19.5-13.6c-5.2,0.9-9.5,4-11.9,8.3c-0.5,0.9-0.9,1.8-1.3,2.7
		C82.2,76.1,82,77,81.8,78c-0.3,1.8-0.3,3.6,0,5.5C83.4,92.6,92.1,98.7,101.3,97.1z M87.3,80c0.1-1,0.3-2,0.6-2.9
		c0.3-0.9,0.8-1.8,1.4-2.7c1.7-2.4,4.3-4.2,7.4-4.7c6.1-1,11.9,3,12.9,9c0.2,1.1,0.2,2.1,0.1,3.2c-0.1,1-0.4,2-0.8,2.9
		c-0.4,0.9-0.9,1.8-1.5,2.6c-1.7,2.1-4.1,3.7-7,4.2c-6.1,1-11.9-3-12.9-9C87.3,81.7,87.3,80.8,87.3,80L87.3,80z"/>
</g>
</svg>
