<?xml version="1.0" encoding="utf-8"?>
<!-- Generator: Adobe Illustrator 21.0.0, SVG Export Plug-In . SVG Version: 6.00 Build 0)  -->
<svg version="1.1" id="Layer_1" xmlns="http://www.w3.org/2000/svg" xmlns:xlink="http://www.w3.org/1999/xlink" x="0px" y="0px"
	 viewBox="0 0 200 200" style="enable-background:new 0 0 200 200;" xml:space="preserve">
<style type="text/css">
	.st0{fill:#BBD758;}
	.st1{fill:#DBDBDB;}
	.st2{fill:#A6A8AB;}
	.st3{fill:#009435;}
	.st4{fill:#E6E7E8;}
	.st5{fill:#4B4E49;}
	.st6{fill:#A4CC40;}
	.st7{fill:#5B5E58;}
	.st8{fill:#B4DB53;}
	.st9{fill:#B5B7BA;}
	.st10{fill:#373737;}
</style>
<g>
	<path class="st0" d="M105.2,199.6H92.9C96.9,201,101.2,201,105.2,199.6z M117.3,133.8c0.2,1.2,0.4,2.4,0.6,3.6
		C117.7,136.1,117.5,134.9,117.3,133.8z M184.9,44.3L108,2.7c-5.6-3-12.4-3-18,0L13.2,44.3c-5.5,3-9,8.6-9,14.6v83.2
		c0,6.1,3.4,11.6,9,14.6l16.1,8.7c-10.2-13.1-16.3-29-16.3-46.1c0-23.7,11.5-45.1,29.7-59.8C42.9,51.5,49.5,45,57.6,45h10.9
		c5.1-1.9,10.4-3.3,15.9-4.3c0.7-7.6,7.1-13.5,14.8-13.5c8.2,0,14.9,6.7,14.9,14.9v3h26.7c8.2,0,14.9,6.7,14.9,14.9v101.4
		c11.1-11.2,17.8-25.9,17.8-42c0-0.6-0.2-6.8,3.3-10.4c3.1-3.3,9-3.3,11.9,0.1c3.3,3.7,2.7,9.9,2.6,10.6c0,14.6-4.4,28.3-12.1,40.2
		l5.6-3.1c5.6-3,9-8.6,9-14.6V58.9C193.9,52.8,190.5,47.3,184.9,44.3L184.9,44.3z M42.8,154.6V84.4c-8.1,9.8-12,21.2-12,34.9
		C30.8,132.4,35.2,144.5,42.8,154.6z M135.2,143.3c0-1.7-0.1-3.3-0.3-4.9C135.1,140,135.2,141.7,135.2,143.3z M134.9,138.4
		c-0.2-1.6-0.6-3.2-1-4.7C134.3,135.2,134.6,136.8,134.9,138.4z"/>
</g>
<g>
	<path class="st1" d="M184.3,113c-0.5-0.5-2.2-0.9-3.2,0.1c-1.4,1.4-1.7,4.8-1.7,6.1c0,19.7-9.1,37.5-23.7,50.2v6.8
		c3.7-2.8,7.2-5.9,10.4-9.3c12.1-12.9,19.4-29.5,19.4-47.6C185.6,117.7,185.6,114.3,184.3,113L184.3,113z M19,119.4
		c0,20.2,9.1,38.5,23.8,51.9v-7.4c-11.2-12.1-17.9-27.6-17.9-44.5c0-16.8,5.2-30.4,15.9-41.7c0.1-0.2,0.8-1.1,2-2.5v-7.8
		C28.1,80.9,19,99.2,19,119.4z"/>
</g>
<g>
	<path class="st2" d="M63.6,143.3c0-19.8,16-35.8,35.8-35.8c7.8,0,15.1,2.6,20.9,6.8l13.1-15.8H48.7v86.2c0,3.9,2.5,7.1,5.9,8.4
		l3.4-4.1l1.9-2.3l2-2.4l0.7-0.8l2.5-3.1l2-2.4l2-2.4l5.6-6.7C67.8,162.6,63.6,153.4,63.6,143.3L63.6,143.3z M135.1,144.2
		c-0.4,17.1-12.7,31.1-29,34.2l-3.9,4.6l-2.5,2.9l-2.4,2.9l-3.8,4.4l-0.3,0.4h47.7c4,0,7.3-2.6,8.5-6.2c0.3-0.9,0.4-1.8,0.4-2.7
		v-57.7L135.1,144.2L135.1,144.2z"/>
</g>
<path class="st3" d="M140.9,51h-26.8v8.9c0,0.6-0.1,1.2-0.1,1.8c1.9,2.9,3.1,6.3,3.1,10c0,9.8-8,17.8-17.8,17.8s-17.8-8-17.8-17.8
	c0-3.7,1.2-7.2,3.1-10c-0.1-0.6-0.1-1.2-0.1-1.8V51H57.6c-1,0-2,0.2-3,0.5c-1.1,0.4-2.1,1-3,1.8c-1.5,1.4-2.6,3.3-2.8,5.4
	c0,0.4-0.1,0.8-0.1,1.2v32.7h101.1V59.9C149.8,55,145.8,51,140.9,51z"/>
<path class="st4" d="M108,40.5c-0.8-4.2-4.4-7.3-8.8-7.3c-4.1,0-7.6,2.8-8.6,6.6c-0.2,0.7-0.3,1.5-0.3,2.3v17.8c0,4.9,4,8.9,8.9,8.9
	s8.9-4,8.9-8.9V42.1C108.2,41.5,108.1,41,108,40.5z"/>
<g>
	<path class="st5" d="M112.4,121.8c0.3,0.2,0.6,0.5,0.9,0.8l7-8.3c-5.8-4.3-13.1-6.8-20.9-6.8c-19.8,0-35.8,16.1-35.8,35.8
		c0,10.1,4.2,19.3,11.1,25.7l8.7-10.4c-4.8-5.9-5.8-14.4-1.7-21.4c1.1-1.9,2.7-3.6,3.1-4c0.2-0.2,1.3,0.5,0.9,1
		c-1.7,6.2-0.9,10.5,1.2,14.6c0.2,0.1,0.9,0.4,1.1,0.1c0.4-12.7,7.1-20.6,15-26C107.4,121.6,111.1,121.1,112.4,121.8z M106.1,178.4
		c16.3-3,28.7-17.1,29-34.2L106.1,178.4z"/>
</g>
<path class="st6" d="M112.4,121.8c-1.3-0.7-5.1-0.2-9.5,1.1c-7.9,5.4-14.6,13.3-15,26c-0.1,0.3-0.9-0.1-1.1-0.1
	c-2.1-4.1-2.9-8.4-1.2-14.6c0.4-0.5-0.7-1.3-0.9-1c-0.4,0.4-2,2.1-3.1,4c-4,7-3,15.5,1.7,21.4l30-36
	C113,122.3,112.7,122,112.4,121.8z"/>
<path class="st7" d="M104.7,178.7c0.5-0.1,0.9-0.2,1.4-0.3l29-34.2l0.1-0.4l0-0.4v-0.2c0-4.5-0.8-8.8-2.3-12.7
	c-0.5-1.3-1.1-2.6-1.7-3.8c-2.6-4.9-6.3-9.2-10.8-12.4l-7,8.3c1.4,1.9,3,6.1,3.9,11.1c0.2,1.2,0.4,2.4,0.6,3.6
	c0.1,0.8,0.2,1.6,0.3,2.5c0.1,0.8,0.1,1.7,0.1,2.5s0,1.7,0,2.5s-0.1,1.6-0.2,2.5s-0.2,1.6-0.3,2.4s-0.3,1.5-0.5,2.3
	s-0.4,1.4-0.7,2.1c-0.3,0.7-0.6,1.3-0.9,2c-5.2,9.3-17,12.7-26.3,7.5c-2.3-1.3-4.3-3-5.8-4.9l-8.7,10.4c6.4,6.2,15.1,10.1,24.8,10.1
	C101.2,179.1,103,179,104.7,178.7L104.7,178.7z M106.1,178.4l29-34.2L106.1,178.4z M104.7,178.7c0.5-0.1,0.9-0.2,1.4-0.3
	C105.7,178.5,105.2,178.6,104.7,178.7z"/>
<path class="st8" d="M118.1,139.9c-0.1-0.8-0.2-1.7-0.3-2.5c-0.2-1.2-0.3-2.4-0.6-3.6c-1-5-2.5-9.3-3.9-11.1l-30,36
	c1.6,2,3.5,3.7,5.8,4.9c9.3,5.2,21.2,1.8,26.3-7.5c0.3-0.6,0.7-1.3,0.9-2c0.3-0.7,0.5-1.4,0.7-2.1s0.4-1.5,0.5-2.3s0.3-1.6,0.3-2.4
	s0.1-1.6,0.2-2.5s0-1.7,0-2.5C118.2,141.5,118.1,140.7,118.1,139.9z"/>
<g>
	<path class="st9" d="M99.4,179.1c-9.7,0-18.4-3.8-24.8-10.1l-5.6,6.7l-2,2.4l-2,2.4l-2.5,3.1l-0.7,0.8l-2,2.4L58,189l-3.4,4.1
		c0.9,0.3,2,0.5,3,0.5h35.5l0.3-0.4l3.8-4.4l2.4-2.9l2.5-2.9l3.9-4.6c-0.5,0.1-0.9,0.2-1.4,0.3C103,179,101.2,179.1,99.4,179.1
		L99.4,179.1z M133.4,98.6l-13.1,15.8c4.5,3.2,8.2,7.5,10.8,12.4c0.6,1.2,1.2,2.5,1.7,3.8c1.5,3.9,2.3,8.2,2.3,12.7v0.2l0,0.4
		l-0.1,0.4l14.6-17.1V98.6L133.4,98.6L133.4,98.6z"/>
</g>
<path class="st10" d="M188.8,109c-3-3.3-8.8-3.3-11.9-0.1c-3.5,3.6-3.3,9.8-3.3,10.4c0,16.1-6.7,30.8-17.8,42V59.9
	c0-8.2-6.7-14.9-14.9-14.9h-26.8v-3c0-8.2-6.7-14.9-14.9-14.9c-7.7,0-14.1,5.9-14.8,13.5c-5.5,1-10.8,2.5-15.9,4.3H57.6
	c-8.1,0-14.7,6.5-14.9,14.5C24.5,74.3,13,95.7,13,119.4c0,17.1,6,33.1,16.3,46.1c3.9,5,8.4,9.6,13.5,13.6v5.6
	c0,8.2,6.7,14.9,14.9,14.9h83.2c8.2,0,14.9-6.7,14.9-14.9v-1.2c9.5-6.4,17.5-14.5,23.6-23.8c7.7-11.8,12.1-25.6,12.1-40.2
	C191.4,119,192,112.7,188.8,109z M155.7,176.2v-6.8c14.6-12.7,23.7-30.5,23.7-50.2c-0.1-1.4,0.3-4.7,1.7-6.1c1-1,2.7-0.7,3.2-0.1
	c1.3,1.3,1.3,4.6,1.1,6.4c0,18.1-7.3,34.7-19.4,47.6C162.9,170.3,159.5,173.4,155.7,176.2L155.7,176.2z M149.8,184.8
	c0,0.9-0.1,1.9-0.4,2.7c-1.1,3.6-4.5,6.2-8.5,6.2H57.6c-1.1,0-2.1-0.2-3-0.5c-3.4-1.2-5.9-4.5-5.9-8.4V98.6h101.1V184.8z M42.8,67.4
	v7.8c-1.2,1.4-1.9,2.3-2,2.5C30,89,24.9,102.6,24.9,119.4c0,16.9,6.7,32.4,17.9,44.5v7.4C28.1,157.9,19,139.6,19,119.4
	S28.1,80.8,42.8,67.4z M51.7,53.3c0.9-0.8,1.9-1.4,3-1.8c0.9-0.3,1.9-0.5,3-0.5h26.8v8.9c0,0.6,0.1,1.2,0.1,1.8
	c-1.9,2.9-3.1,6.3-3.1,10c0,9.8,8,17.8,17.8,17.8s17.8-8,17.8-17.8c0-3.7-1.2-7.2-3.1-10c0.1-0.6,0.1-1.2,0.1-1.8V51h26.8
	c4.9,0,8.9,4,8.9,8.9v32.7H48.7V59.9c0-0.4,0-0.8,0.1-1.2C49.1,56.6,50.1,54.7,51.7,53.3z M90.3,42.1c0-0.8,0.1-1.6,0.3-2.3
	c1-3.8,4.5-6.6,8.6-6.6c4.4,0,8,3.1,8.8,7.3c0.1,0.5,0.2,1.1,0.2,1.6v17.8c0,4.9-4,8.9-8.9,8.9s-8.9-4-8.9-8.9L90.3,42.1z
	 M42.8,154.6c-7.5-10.1-12-22.2-12-35.2c0-13.8,3.9-25.2,12-34.9V154.6z"/>
</svg>
