<?xml version="1.0" encoding="utf-8"?>
<!-- Generator: Adobe Illustrator 21.0.0, SVG Export Plug-In . SVG Version: 6.00 Build 0)  -->
<svg version="1.1" id="Layer_1" xmlns="http://www.w3.org/2000/svg" xmlns:xlink="http://www.w3.org/1999/xlink" x="0px" y="0px"
	 viewBox="0 0 190.1 31.2" style="enable-background:new 0 0 190.1 31.2;" xml:space="preserve">
<style type="text/css">
	.st0{fill:#82B541;}
	.st1{fill:#FFFFFF;}
</style>
<path class="st0" d="M29.9,0.2C29-0.3,26.3,0,23.2,1c-5.6,3.8-10.2,9.4-10.6,18.4c-0.1,0.2-0.6,0-0.7-0.1C10.4,16.4,9.8,13.4,11,9
	c0.2-0.4-0.5-0.9-0.7-0.7C10.1,8.6,9,9.8,8.2,11.1c-3.8,6.5-1.3,14.9,5.3,18.6c6.6,3.7,14.9,1.3,18.6-5.3
	C36.3,16.8,32.4,1.6,29.9,0.2z"/>
<g>
	<path class="st1" d="M54,3.9c-7.8,0-13.5,5.8-13.5,13.8c0,8.1,5.7,13.7,13.8,13.7c4.1,0,7.3-1.3,9.9-3.9c0.8-0.8,0.9-1.6,0.9-1.9
		c0-1.3-1-2.3-2.3-2.3c-0.7,0-1.2,0.3-1.9,0.9c-1.5,1.4-3.4,2.8-6.6,2.8c-4.4,0-8.1-3.3-8.3-7.6h17.7c1.9,0,2.9-0.9,2.9-2.7
		c0-0.5,0-0.9-0.1-1.7C65.5,8,60.9,3.9,54,3.9z M54,8.2c4.2,0,7,2.7,7.1,7.1H46C46.4,11.2,49.9,8.2,54,8.2z"/>
	<path class="st1" d="M83.4,3.9c-3.6,0-7.1,2-8.4,4.9V7c0-2.7-2.1-2.9-2.5-2.9c-1.2,0-2.6,0.8-2.6,2.9v21.2c0,2.8,2.2,3,2.7,3
		c0.4,0,2.7-0.1,2.7-3V16.9c0-4.9,2.8-8.4,6.8-8.4c3.9,0,5.8,2.5,5.8,7.8v12c0,2.8,2.2,3,2.7,3s2.7-0.1,2.7-3V14.6
		C93.2,9.4,90.7,3.9,83.4,3.9z"/>
	<path class="st1" d="M117.6,4.2c-1.2,0-2.1,0.7-2.7,2.2l-7.4,18.5l-7.3-18.5c-0.6-1.4-1.5-2.2-2.7-2.2c-1.5,0-2.7,1.2-2.7,2.6
		c0,0.4,0,0.8,0.3,1.5l8.5,20c1,2.4,2.7,2.9,3.9,2.9c1.2,0,2.9-0.5,3.9-2.9l8.5-20.1c0.3-0.7,0.3-1.2,0.3-1.5
		C120.2,5.3,119.1,4.2,117.6,4.2z"/>
	<path class="st1" d="M133.3,3.9c-3.4,0-6.7,1-9,2.7c-0.8,0.6-1.2,1.3-1.2,2.1c0,1.2,0.9,2.1,2.1,2.1c0.5,0,1.1-0.2,1.6-0.6
		c2-1.4,4-2,6-2c4,0,6.3,2,6.3,5.6v0.6c-8.9,0-18,1.1-18,8.9c0,5.6,4.8,8.1,9.5,8.1c3.8,0,6.8-1.5,8.7-4.3v1.4c0,2,1.4,2.7,2.5,2.7
		c0.2,0,2.4-0.1,2.4-2.7V14.2C144.2,7.7,140.1,3.9,133.3,3.9z M137.9,18.4h1.1v1.2c0,4.5-2.9,7.5-7.4,7.5c-1.2,0-5.2-0.3-5.2-3.9
		C126.5,18.9,133,18.4,137.9,18.4z"/>
	<path class="st1" d="M158.2,9.1c2.4,0,2.5-1.8,2.5-2.2c0-1.1-0.7-2.3-2.5-2.3h-4.8v-4.9c0-2.2-1.4-3-2.6-3c-0.4,0-2.7,0.1-2.7,3V23
		c0,5.4,2.6,8.2,7.7,8.2c1.3,0,2.6-0.2,3.4-0.6c0.9-0.5,1.5-1.3,1.5-2.1c0-1.2-0.9-2.1-2.1-2.1c-0.2,0-0.6,0.1-1,0.2
		c-0.5,0.1-0.8,0.2-1.1,0.2c-2,0-3-1.3-3-4.2V9.1H158.2z"/>
	<path class="st1" d="M176,3.9c-8.1,0-14.1,5.8-14.1,13.7c0,3.9,1.4,7.4,4,9.9c2.6,2.5,6.1,3.9,10,3.9c8,0,14.1-5.9,14.1-13.8
		C190.1,9.7,184.2,3.9,176,3.9z M176,26.9c-5.6,0-8.5-4.7-8.5-9.3c0-6.3,4.4-9.2,8.5-9.2c4.1,0,8.5,2.9,8.5,9.2
		C184.5,24,180.1,26.9,176,26.9z"/>
</g>
</svg>
